<?xml version="1.0" encoding="utf-8" standalone="no"?>
<!DOCTYPE svg PUBLIC "-//W3C//DTD SVG 1.1//EN"
  "http://www.w3.org/Graphics/SVG/1.1/DTD/svg11.dtd">
<svg xmlns:xlink="http://www.w3.org/1999/xlink" width="411.285625pt" height="310.86825pt" viewBox="0 0 411.285625 310.86825" xmlns="http://www.w3.org/2000/svg" version="1.1">
 <metadata>
  <rdf:RDF xmlns:dc="http://purl.org/dc/elements/1.1/" xmlns:cc="http://creativecommons.org/ns#" xmlns:rdf="http://www.w3.org/1999/02/22-rdf-syntax-ns#">
   <cc:Work>
    <dc:type rdf:resource="http://purl.org/dc/dcmitype/StillImage"/>
    <dc:date>2023-11-22T14:24:15.043420</dc:date>
    <dc:format>image/svg+xml</dc:format>
    <dc:creator>
     <cc:Agent>
      <dc:title>Matplotlib v3.7.1, https://matplotlib.org/</dc:title>
     </cc:Agent>
    </dc:creator>
   </cc:Work>
  </rdf:RDF>
 </metadata>
 <defs>
  <style type="text/css">*{stroke-linejoin: round; stroke-linecap: butt}</style>
 </defs>
 <g id="figure_1">
  <g id="patch_1">
   <path d="M 0 310.86825 
L 411.285625 310.86825 
L 411.285625 0 
L 0 0 
z
" style="fill: #ffffff"/>
  </g>
  <g id="axes_1">
   <g id="patch_2">
    <path d="M 46.965625 273.312 
L 404.085625 273.312 
L 404.085625 7.2 
L 46.965625 7.2 
z
" style="fill: #ffffff"/>
   </g>
   <g id="PolyCollection_1">
    <defs>
     <path id="m39d8d5887c" d="M 63.833684 -61.330684 
L 63.833684 -61.330684 
L 64.469016 -60.483517 
L 65.104348 -60.632188 
L 65.739679 -60.216049 
L 66.375011 -60.636138 
L 67.010343 -60.61373 
L 67.645675 -60.779031 
L 68.281007 -61.140354 
L 68.916338 -60.968445 
L 69.55167 -61.195886 
L 70.187002 -60.793702 
L 70.822334 -60.724806 
L 71.457666 -60.611604 
L 72.092997 -60.459782 
L 72.728329 -60.549325 
L 73.363661 -60.543526 
L 73.998993 -60.543685 
L 74.634325 -60.548431 
L 75.269656 -59.682967 
L 75.904988 -59.629003 
L 76.54032 -59.853644 
L 77.175652 -59.620332 
L 77.810983 -59.897083 
L 78.446315 -59.898173 
L 79.081647 -59.975319 
L 79.716979 -59.760455 
L 80.352311 -59.624015 
L 80.987642 -59.62974 
L 81.622974 -59.763927 
L 82.258306 -59.651802 
L 82.893638 -59.73369 
L 83.52897 -59.550243 
L 84.164301 -59.711767 
L 84.799633 -59.796247 
L 85.434965 -59.361001 
L 86.070297 -59.598577 
L 86.705629 -59.752675 
L 87.34096 -56.589438 
L 87.976292 -56.833439 
L 88.611624 -57.17506 
L 89.246956 -57.007285 
L 89.882288 -57.303635 
L 90.517619 -57.518029 
L 91.152951 -58.055432 
L 91.788283 -58.180755 
L 92.423615 -56.764579 
L 93.058946 -55.283039 
L 93.694278 -56.149412 
L 94.32961 -57.271757 
L 94.964942 -58.252425 
L 95.600274 -57.847593 
L 96.235605 -56.945037 
L 96.870937 -56.1374 
L 97.506269 -57.602068 
L 98.141601 -58.905066 
L 98.776933 -59.825804 
L 99.412264 -61.608014 
L 100.047596 -63.787839 
L 100.682928 -64.897437 
L 101.31826 -67.538974 
L 101.953592 -68.766005 
L 102.588923 -71.016702 
L 103.224255 -73.22584 
L 103.859587 -76.109705 
L 104.494919 -78.424314 
L 105.130251 -80.945482 
L 105.765582 -83.457108 
L 106.400914 -85.540461 
L 107.036246 -88.028522 
L 107.671578 -90.230186 
L 108.306909 -92.577836 
L 108.942241 -94.879315 
L 109.577573 -97.26894 
L 110.212905 -99.314652 
L 110.848237 -100.697638 
L 111.483568 -102.123669 
L 112.1189 -104.232644 
L 112.754232 -106.620127 
L 113.389564 -108.530905 
L 114.024896 -110.876017 
L 114.660227 -113.085945 
L 115.295559 -114.764264 
L 115.930891 -116.631854 
L 116.566223 -118.326195 
L 117.201555 -119.684832 
L 117.836886 -120.911803 
L 118.472218 -122.294079 
L 119.10755 -123.931125 
L 119.742882 -125.751306 
L 120.378214 -127.081928 
L 121.013545 -127.966679 
L 121.648877 -129.026307 
L 122.284209 -130.179167 
L 122.919541 -130.951827 
L 123.554872 -130.780998 
L 124.190204 -131.432593 
L 124.825536 -132.394915 
L 125.460868 -132.664969 
L 126.0962 -134.194069 
L 126.731531 -135.591398 
L 127.366863 -136.032885 
L 128.002195 -136.549203 
L 128.637527 -137.519792 
L 129.272859 -139.358459 
L 129.90819 -139.629705 
L 130.543522 -140.481094 
L 131.178854 -141.137988 
L 131.814186 -141.758659 
L 132.449518 -143.230576 
L 133.084849 -144.534859 
L 133.720181 -146.64024 
L 134.355513 -148.356353 
L 134.990845 -150.308623 
L 135.626177 -152.42744 
L 136.261508 -154.662576 
L 136.89684 -156.976655 
L 137.532172 -155.818296 
L 138.167504 -144.935822 
L 138.802835 -137.171307 
L 139.438167 -125.518938 
L 140.073499 -118.093805 
L 140.708831 -108.964764 
L 141.344163 -100.952982 
L 141.979494 -93.922036 
L 142.614826 -87.773221 
L 143.250158 -87.500255 
L 143.88549 -82.780133 
L 144.520822 -86.066224 
L 145.156153 -89.578816 
L 145.791485 -93.248076 
L 146.426817 -97.061278 
L 147.062149 -100.869621 
L 147.697481 -104.715576 
L 148.332812 -108.573303 
L 148.968144 -112.422342 
L 149.603476 -116.246413 
L 150.238808 -120.032536 
L 150.874139 -123.770366 
L 151.509471 -127.451688 
L 152.144803 -131.07002 
L 152.780135 -134.620298 
L 153.415467 -138.098635 
L 154.050798 -141.50211 
L 154.68613 -144.828613 
L 155.321462 -148.076706 
L 155.956794 -151.245513 
L 156.592126 -154.334628 
L 157.227457 -157.34404 
L 157.862789 -160.274064 
L 158.498121 -163.125288 
L 159.133453 -165.89853 
L 159.768785 -168.594792 
L 160.404116 -171.215233 
L 161.039448 -173.761137 
L 161.67478 -176.233888 
L 162.310112 -178.634952 
L 162.945444 -180.965856 
L 163.580775 -183.228176 
L 164.216107 -185.361228 
L 164.851439 -175.234844 
L 165.486771 -167.027207 
L 166.122102 -160.279772 
L 166.757434 -152.676809 
L 167.392766 -145.470565 
L 168.028098 -138.897842 
L 168.66343 -132.500391 
L 169.298761 -126.720099 
L 169.934093 -121.260263 
L 170.569425 -116.218539 
L 171.204757 -112.298358 
L 171.840089 -107.824993 
L 172.47542 -104.155293 
L 173.110752 -100.962473 
L 173.746084 -98.384448 
L 174.381416 -95.847417 
L 175.016748 -94.063492 
L 175.652079 -92.438607 
L 176.287411 -91.060866 
L 176.922743 -89.642604 
L 177.558075 -88.616303 
L 178.193407 -88.218277 
L 178.828738 -88.081636 
L 179.46407 -87.805942 
L 180.099402 -88.246451 
L 180.734734 -88.073564 
L 181.370065 -87.994225 
L 182.005397 -88.168975 
L 182.640729 -87.866712 
L 183.276061 -88.063234 
L 183.911393 -88.430197 
L 184.546724 -88.767862 
L 185.182056 -88.540169 
L 185.817388 -88.95657 
L 186.45272 -89.31202 
L 187.088052 -89.304233 
L 187.723383 -89.506349 
L 188.358715 -89.843935 
L 188.994047 -90.012421 
L 189.629379 -90.369975 
L 190.264711 -90.717269 
L 190.900042 -91.131873 
L 191.535374 -91.427125 
L 192.170706 -92.135211 
L 192.806038 -92.788346 
L 193.44137 -93.435452 
L 194.076701 -94.005205 
L 194.712033 -94.450271 
L 195.347365 -95.067366 
L 195.982697 -95.768414 
L 196.618028 -96.627393 
L 197.25336 -97.38187 
L 197.888692 -98.72686 
L 198.524024 -100.228118 
L 199.159356 -101.674214 
L 199.794687 -103.117029 
L 200.430019 -104.445288 
L 201.065351 -105.832479 
L 201.700683 -107.270142 
L 202.336015 -108.748638 
L 202.971346 -110.226217 
L 203.606678 -111.703918 
L 204.24201 -112.921578 
L 204.877342 -113.670645 
L 205.512674 -111.740261 
L 206.148005 -111.650396 
L 206.783337 -112.622188 
L 207.418669 -114.579881 
L 208.054001 -108.088433 
L 208.689333 -107.461423 
L 209.324664 -99.553752 
L 209.959996 -95.584557 
L 210.595328 -89.055125 
L 211.23066 -86.569773 
L 211.865991 -84.738794 
L 212.501323 -84.07293 
L 213.136655 -82.812403 
L 213.771987 -80.497498 
L 214.407319 -78.88962 
L 215.04265 -77.3424 
L 215.677982 -77.789283 
L 216.313314 -76.527537 
L 216.948646 -73.383115 
L 217.583978 -74.720723 
L 218.219309 -74.916251 
L 218.854641 -75.430275 
L 219.489973 -76.466295 
L 220.125305 -77.326174 
L 220.760637 -78.305062 
L 221.395968 -79.564654 
L 222.0313 -81.198418 
L 222.666632 -82.51319 
L 223.301964 -83.441441 
L 223.937296 -85.115341 
L 224.572627 -87.028837 
L 225.207959 -88.678552 
L 225.843291 -90.581369 
L 226.478623 -91.167457 
L 227.113954 -92.120031 
L 227.749286 -93.44754 
L 228.384618 -94.28938 
L 229.01995 -94.915729 
L 229.655282 -95.643483 
L 230.290613 -96.768222 
L 230.925945 -98.020882 
L 231.561277 -99.287583 
L 232.196609 -100.278958 
L 232.831941 -101.056814 
L 233.467272 -102.01483 
L 234.102604 -102.595672 
L 234.737936 -103.989532 
L 235.373268 -105.234547 
L 236.0086 -106.008151 
L 236.643931 -106.932551 
L 237.279263 -108.12719 
L 237.914595 -109.393935 
L 238.549927 -110.44417 
L 239.185259 -111.273921 
L 239.82059 -112.46349 
L 240.455922 -113.289541 
L 241.091254 -113.74299 
L 241.726586 -114.74076 
L 242.361917 -115.636584 
L 242.997249 -116.68292 
L 243.632581 -117.331815 
L 244.267913 -118.132691 
L 244.903245 -118.698419 
L 245.538576 -119.48915 
L 246.173908 -120.336332 
L 246.80924 -121.145513 
L 247.444572 -122.08833 
L 248.079904 -123.066936 
L 248.715235 -124.032566 
L 249.350567 -124.699038 
L 249.985899 -125.42169 
L 250.621231 -126.311783 
L 251.256563 -127.011394 
L 251.891894 -127.911414 
L 252.527226 -128.757334 
L 253.162558 -129.234121 
L 253.79789 -129.951689 
L 254.433222 -130.581735 
L 255.068553 -131.012326 
L 255.703885 -131.754634 
L 256.339217 -132.589425 
L 256.974549 -133.329577 
L 257.60988 -134.113281 
L 258.245212 -134.459824 
L 258.880544 -135.241404 
L 259.515876 -136.002635 
L 260.151208 -136.590654 
L 260.786539 -137.349402 
L 261.421871 -138.070339 
L 262.057203 -138.80265 
L 262.692535 -139.310179 
L 263.327867 -139.939765 
L 263.963198 -140.655406 
L 264.59853 -141.316597 
L 265.233862 -141.952155 
L 265.869194 -142.649819 
L 266.504526 -143.323684 
L 267.139857 -143.939749 
L 267.775189 -144.609489 
L 268.410521 -145.281073 
L 269.045853 -145.944823 
L 269.681185 -146.602857 
L 270.316516 -147.221946 
L 270.951848 -147.753804 
L 271.58718 -148.385269 
L 272.222512 -148.999607 
L 272.857843 -148.451727 
L 273.493175 -147.821818 
L 274.128507 -146.981711 
L 274.763839 -146.492132 
L 275.399171 -146.975317 
L 276.034502 -148.065969 
L 276.669834 -149.56379 
L 277.305166 -150.437557 
L 277.940498 -145.091765 
L 278.57583 -141.077655 
L 279.211161 -137.157334 
L 279.846493 -134.79432 
L 280.481825 -132.97374 
L 281.117157 -132.212823 
L 281.752489 -132.382671 
L 282.38782 -131.13102 
L 283.023152 -130.35157 
L 283.658484 -130.281876 
L 284.293816 -129.831425 
L 284.929148 -130.93059 
L 285.564479 -131.666037 
L 286.199811 -132.849839 
L 286.835143 -133.791832 
L 287.470475 -135.111028 
L 288.105806 -136.528504 
L 288.741138 -138.252272 
L 289.37647 -139.964427 
L 290.011802 -140.539322 
L 290.647134 -141.516865 
L 291.282465 -142.97977 
L 291.917797 -144.776965 
L 292.553129 -146.80929 
L 293.188461 -149.007726 
L 293.823793 -151.322224 
L 294.459124 -153.715403 
L 295.094456 -156.158728 
L 295.729788 -158.630061 
L 296.36512 -161.112029 
L 297.000452 -163.590881 
L 297.635783 -166.055676 
L 298.271115 -168.497689 
L 298.906447 -170.909958 
L 299.541779 -173.286946 
L 300.177111 -175.624272 
L 300.812442 -177.918504 
L 301.447774 -180.166994 
L 302.083106 -182.367739 
L 302.718438 -168.549047 
L 303.353769 -171.076094 
L 303.989101 -173.547266 
L 304.624433 -175.96129 
L 305.259765 -178.317345 
L 305.895097 -170.300557 
L 306.530428 -166.35035 
L 307.16576 -161.119741 
L 307.801092 -159.499767 
L 308.436424 -154.978834 
L 309.071756 -153.096037 
L 309.707087 -151.618053 
L 310.342419 -149.614312 
L 310.977751 -146.973405 
L 311.613083 -145.759017 
L 312.248415 -146.043932 
L 312.883746 -146.640777 
L 313.519078 -149.177876 
L 314.15441 -151.759472 
L 314.789742 -154.364078 
L 315.425073 -156.974776 
L 316.060405 -159.578151 
L 316.695737 -162.163516 
L 317.331069 -164.722347 
L 317.966401 -167.247845 
L 318.601732 -169.734611 
L 319.237064 -172.178386 
L 319.872396 -174.575846 
L 320.507728 -176.924441 
L 321.14306 -179.222263 
L 321.778391 -179.559855 
L 322.413723 -181.208835 
L 323.049055 -183.378238 
L 323.684387 -184.763763 
L 324.319719 -177.773051 
L 324.95505 -177.373941 
L 325.590382 -177.451574 
L 326.225714 -177.699743 
L 326.861046 -179.865348 
L 327.496378 -181.998865 
L 328.131709 -184.096438 
L 328.767041 -186.155048 
L 329.402373 -188.172368 
L 330.037705 -190.146644 
L 330.673036 -192.076599 
L 331.308368 -193.961351 
L 331.9437 -195.800353 
L 332.579032 -197.593333 
L 333.214364 -199.340254 
L 333.849695 -201.041271 
L 334.485027 -202.696702 
L 335.120359 -204.306999 
L 335.755691 -205.872725 
L 336.391023 -182.339121 
L 337.026354 -165.266769 
L 337.661686 -167.96242 
L 338.297018 -170.585944 
L 338.93235 -173.13804 
L 339.567682 -175.619586 
L 340.203013 -178.031605 
L 340.838345 -180.375242 
L 341.473677 -182.651741 
L 342.109009 -184.862421 
L 342.744341 -187.008662 
L 343.379672 -189.091893 
L 344.015004 -191.113573 
L 344.650336 -193.075187 
L 345.285668 -194.978231 
L 345.920999 -196.824209 
L 346.556331 -173.515347 
L 347.191663 -175.996698 
L 347.826995 -178.405046 
L 348.462327 -180.742105 
L 349.097658 -183.009614 
L 349.73299 -174.917242 
L 350.368322 -166.345028 
L 351.003654 -158.882633 
L 351.638986 -153.476586 
L 352.274317 -147.525432 
L 352.909649 -143.15741 
L 353.544981 -141.301073 
L 354.180313 -137.834505 
L 354.815645 -134.786728 
L 355.450976 -131.884985 
L 356.086308 -131.603939 
L 356.72164 -130.260093 
L 357.356972 -129.648538 
L 357.992304 -131.053903 
L 358.627635 -132.80485 
L 359.262967 -128.086903 
L 359.898299 -128.722785 
L 360.533631 -131.633741 
L 361.168962 -134.284557 
L 361.804294 -137.202322 
L 362.439626 -140.149908 
L 363.074958 -143.107361 
L 363.71029 -146.058877 
L 364.345621 -148.991872 
L 364.980953 -151.896307 
L 365.616285 -154.764177 
L 366.251617 -157.589118 
L 366.886949 -160.366101 
L 367.52228 -163.091195 
L 368.157612 -165.761372 
L 368.792944 -168.374355 
L 369.428276 -170.92849 
L 370.063608 -173.422644 
L 370.698939 -175.856116 
L 371.334271 -178.228572 
L 371.969603 -180.53998 
L 372.604935 -160.659588 
L 373.240267 -163.475077 
L 373.875598 -155.042098 
L 374.51093 -157.999483 
L 375.146262 -160.883956 
L 375.781594 -163.695276 
L 376.416925 -160.62435 
L 377.052257 -154.043734 
L 377.687589 -150.051535 
L 378.322921 -148.186803 
L 378.958253 -146.085048 
L 379.593584 -144.688359 
L 380.228916 -143.841691 
L 380.864248 -145.498667 
L 381.49958 -147.880584 
L 382.134912 -150.69848 
L 382.770243 -153.531146 
L 383.405575 -156.332518 
L 384.040907 -159.095569 
L 384.676239 -161.814726 
L 385.311571 -164.485604 
L 385.946902 -167.104794 
L 386.582234 -150.021386 
L 387.217566 -153.051087 
L 387.852898 -156.017433 
L 387.852898 -277.913016 
L 387.852898 -277.913016 
L 387.217566 -276.604615 
L 386.582234 -275.134581 
L 385.946902 -273.802619 
L 385.311571 -272.514271 
L 384.676239 -271.071951 
L 384.040907 -269.461425 
L 383.405575 -267.666916 
L 382.770243 -265.670856 
L 382.134912 -263.453593 
L 381.49958 -261.675395 
L 380.864248 -261.801485 
L 380.228916 -263.158105 
L 379.593584 -265.974348 
L 378.958253 -268.941322 
L 378.322921 -272.025526 
L 377.687589 -275.11173 
L 377.052257 -278.23592 
L 376.416925 -280.924124 
L 375.781594 -283.969421 
L 375.146262 -283.228849 
L 374.51093 -282.374488 
L 373.875598 -281.396258 
L 373.240267 -283.678567 
L 372.604935 -282.915266 
L 371.969603 -279.925057 
L 371.334271 -279.358275 
L 370.698939 -278.701058 
L 370.063608 -277.9454 
L 369.428276 -277.082575 
L 368.792944 -276.103048 
L 368.157612 -274.996387 
L 367.52228 -273.751149 
L 366.886949 -272.354753 
L 366.251617 -270.793326 
L 365.616285 -269.051519 
L 364.980953 -267.112287 
L 364.345621 -264.956615 
L 363.71029 -262.56318 
L 363.074958 -259.907928 
L 362.439626 -256.963521 
L 361.804294 -253.698621 
L 361.168962 -250.076929 
L 360.533631 -249.569197 
L 359.898299 -245.430274 
L 359.262967 -247.619317 
L 358.627635 -250.50489 
L 357.992304 -251.793422 
L 357.356972 -253.516317 
L 356.72164 -256.371467 
L 356.086308 -259.438737 
L 355.450976 -262.277068 
L 354.815645 -265.579691 
L 354.180313 -268.893503 
L 353.544981 -272.208006 
L 352.909649 -275.45777 
L 352.274317 -278.750443 
L 351.638986 -281.794452 
L 351.003654 -284.841063 
L 350.368322 -287.376799 
L 349.73299 -289.413594 
L 349.097658 -291.345673 
L 348.462327 -291.466058 
L 347.826995 -291.542987 
L 347.191663 -291.57225 
L 346.556331 -291.549301 
L 345.920999 -286.261664 
L 345.285668 -286.420023 
L 344.650336 -286.546625 
L 344.015004 -286.6383 
L 343.379672 -286.691624 
L 342.744341 -286.702901 
L 342.109009 -286.668138 
L 341.473677 -286.583024 
L 340.838345 -286.442898 
L 340.203013 -286.242719 
L 339.567682 -285.977037 
L 338.93235 -285.63995 
L 338.297018 -285.225064 
L 337.661686 -284.72545 
L 337.026354 -284.133586 
L 336.391023 -282.437807 
L 335.755691 -275.555707 
L 335.120359 -275.34658 
L 334.485027 -275.08861 
L 333.849695 -274.777444 
L 333.214364 -274.408359 
L 332.579032 -273.976226 
L 331.9437 -273.475465 
L 331.308368 -272.900003 
L 330.673036 -272.243213 
L 330.037705 -271.497861 
L 329.402373 -270.656024 
L 328.767041 -269.709015 
L 328.131709 -268.647279 
L 327.496378 -267.460277 
L 326.861046 -266.136347 
L 326.225714 -264.662534 
L 325.590382 -266.413391 
L 324.95505 -268.284454 
L 324.319719 -270.365793 
L 323.684387 -271.785372 
L 323.049055 -272.626443 
L 322.413723 -271.682901 
L 321.778391 -272.256287 
L 321.14306 -274.086172 
L 320.507728 -273.12914 
L 319.872396 -272.051575 
L 319.237064 -270.842549 
L 318.601732 -269.490024 
L 317.966401 -267.980684 
L 317.331069 -266.299755 
L 316.695737 -264.430767 
L 316.060405 -262.355272 
L 315.425073 -260.052477 
L 314.789742 -257.498786 
L 314.15441 -254.667193 
L 313.519078 -251.526474 
L 312.883746 -248.040084 
L 312.248415 -249.915922 
L 311.613083 -252.012781 
L 310.977751 -254.610579 
L 310.342419 -257.337079 
L 309.707087 -260.051967 
L 309.071756 -262.736679 
L 308.436424 -265.489651 
L 307.801092 -268.134328 
L 307.16576 -270.839975 
L 306.530428 -273.337447 
L 305.895097 -275.955829 
L 305.259765 -277.562503 
L 304.624433 -276.799042 
L 303.989101 -275.929366 
L 303.353769 -274.944011 
L 302.718438 -273.832609 
L 302.083106 -272.989216 
L 301.447774 -272.042925 
L 300.812442 -270.978745 
L 300.177111 -269.785957 
L 299.541779 -268.452734 
L 298.906447 -266.965987 
L 298.271115 -265.311166 
L 297.635783 -263.472033 
L 297.000452 -261.430358 
L 296.36512 -259.165557 
L 295.729788 -256.654206 
L 295.094456 -253.869414 
L 294.459124 -250.779975 
L 293.823793 -247.349193 
L 293.188461 -243.533206 
L 292.553129 -239.278499 
L 291.917797 -234.518042 
L 291.282465 -229.16494 
L 290.647134 -223.101217 
L 290.011802 -216.155993 
L 289.37647 -208.856771 
L 288.741138 -206.555771 
L 288.105806 -205.240423 
L 287.470475 -205.363704 
L 286.835143 -205.743898 
L 286.199811 -206.67107 
L 285.564479 -207.373635 
L 284.929148 -208.57612 
L 284.293816 -209.489615 
L 283.658484 -211.341226 
L 283.023152 -213.102128 
L 282.38782 -215.096233 
L 281.752489 -217.187419 
L 281.117157 -218.928836 
L 280.481825 -221.007458 
L 279.846493 -223.234132 
L 279.211161 -225.47003 
L 278.57583 -227.533595 
L 277.940498 -229.521999 
L 277.305166 -231.1296 
L 276.669834 -232.338181 
L 276.034502 -226.822914 
L 275.399171 -220.531367 
L 274.763839 -213.243818 
L 274.128507 -204.574517 
L 273.493175 -196.267104 
L 272.857843 -189.427765 
L 272.222512 -183.613561 
L 271.58718 -181.266567 
L 270.951848 -179.204146 
L 270.316516 -176.984996 
L 269.681185 -175.300915 
L 269.045853 -173.957865 
L 268.410521 -172.769196 
L 267.775189 -171.744848 
L 267.139857 -171.391347 
L 266.504526 -171.311292 
L 265.869194 -170.194134 
L 265.233862 -169.514477 
L 264.59853 -169.377513 
L 263.963198 -169.183194 
L 263.327867 -168.701982 
L 262.692535 -168.664353 
L 262.057203 -168.892854 
L 261.421871 -168.569503 
L 260.786539 -168.348537 
L 260.151208 -167.988818 
L 259.515876 -168.161454 
L 258.880544 -166.792216 
L 258.245212 -165.71217 
L 257.60988 -166.173308 
L 256.974549 -165.807721 
L 256.339217 -165.676737 
L 255.703885 -165.044245 
L 255.068553 -164.961664 
L 254.433222 -165.412895 
L 253.79789 -165.64136 
L 253.162558 -163.523367 
L 252.527226 -163.936164 
L 251.891894 -163.614132 
L 251.256563 -162.946082 
L 250.621231 -163.09569 
L 249.985899 -162.729542 
L 249.350567 -162.891787 
L 248.715235 -163.180009 
L 248.079904 -161.800274 
L 247.444572 -161.029694 
L 246.80924 -160.63923 
L 246.173908 -160.722248 
L 245.538576 -160.762716 
L 244.903245 -160.958259 
L 244.267913 -161.490101 
L 243.632581 -161.747341 
L 242.997249 -162.247293 
L 242.361917 -162.036251 
L 241.726586 -162.243479 
L 241.091254 -159.595597 
L 240.455922 -160.317589 
L 239.82059 -160.664365 
L 239.185259 -160.037185 
L 238.549927 -160.43614 
L 237.914595 -160.482608 
L 237.279263 -158.745546 
L 236.643931 -158.386848 
L 236.0086 -158.734421 
L 235.373268 -159.324145 
L 234.737936 -159.063352 
L 234.102604 -157.644564 
L 233.467272 -158.481852 
L 232.831941 -158.947858 
L 232.196609 -159.673446 
L 231.561277 -160.186497 
L 230.925945 -160.272408 
L 230.290613 -160.451453 
L 229.655282 -160.911708 
L 229.01995 -161.87128 
L 228.384618 -162.953301 
L 227.749286 -163.89382 
L 227.113954 -164.266935 
L 226.478623 -165.188489 
L 225.843291 -166.461546 
L 225.207959 -164.134798 
L 224.572627 -164.041503 
L 223.937296 -162.934992 
L 223.301964 -162.911511 
L 222.666632 -164.042588 
L 222.0313 -164.808906 
L 221.395968 -165.145731 
L 220.760637 -166.098389 
L 220.125305 -167.389151 
L 219.489973 -168.831302 
L 218.854641 -170.183925 
L 218.219309 -171.962491 
L 217.583978 -173.954756 
L 216.948646 -175.194121 
L 216.313314 -177.7456 
L 215.677982 -180.236011 
L 215.04265 -182.219679 
L 214.407319 -184.829976 
L 213.771987 -187.471443 
L 213.136655 -190.179834 
L 212.501323 -192.810073 
L 211.865991 -195.350807 
L 211.23066 -198.122791 
L 210.595328 -200.948306 
L 209.959996 -203.22641 
L 209.324664 -205.861466 
L 208.689333 -207.53016 
L 208.054001 -209.871946 
L 207.418669 -211.796917 
L 206.783337 -212.073596 
L 206.148005 -203.021356 
L 205.512674 -192.379867 
L 204.877342 -179.3425 
L 204.24201 -173.649044 
L 203.606678 -170.032323 
L 202.971346 -168.622413 
L 202.336015 -167.102729 
L 201.700683 -165.722525 
L 201.065351 -164.99765 
L 200.430019 -164.616456 
L 199.794687 -164.506568 
L 199.159356 -164.09689 
L 198.524024 -163.762316 
L 197.888692 -163.304519 
L 197.25336 -163.391639 
L 196.618028 -164.34597 
L 195.982697 -165.245997 
L 195.347365 -166.328906 
L 194.712033 -167.517286 
L 194.076701 -168.860028 
L 193.44137 -170.163048 
L 192.806038 -171.45502 
L 192.170706 -172.786963 
L 191.535374 -174.124922 
L 190.900042 -175.760512 
L 190.264711 -177.374343 
L 189.629379 -179.068648 
L 188.994047 -180.801782 
L 188.358715 -182.672247 
L 187.723383 -184.505069 
L 187.088052 -186.450455 
L 186.45272 -188.531692 
L 185.817388 -190.493468 
L 185.182056 -192.473749 
L 184.546724 -194.781243 
L 183.911393 -196.898548 
L 183.276061 -199.054162 
L 182.640729 -201.345152 
L 182.005397 -203.882604 
L 181.370065 -206.284547 
L 180.734734 -208.845973 
L 180.099402 -211.495193 
L 179.46407 -213.932683 
L 178.828738 -216.732775 
L 178.193407 -219.537493 
L 177.558075 -222.489669 
L 176.922743 -225.667286 
L 176.287411 -228.97059 
L 175.652079 -232.308959 
L 175.016748 -235.733127 
L 174.381416 -239.221721 
L 173.746084 -242.827482 
L 173.110752 -246.46162 
L 172.47542 -250.1467 
L 171.840089 -253.844011 
L 171.204757 -257.506545 
L 170.569425 -261.176842 
L 169.934093 -264.760296 
L 169.298761 -268.252741 
L 168.66343 -271.642046 
L 168.028098 -274.854652 
L 167.392766 -277.932251 
L 166.757434 -280.757442 
L 166.122102 -283.333059 
L 165.486771 -285.945265 
L 164.851439 -288.013545 
L 164.216107 -289.169969 
L 163.580775 -289.376255 
L 162.945444 -289.398623 
L 162.310112 -289.37161 
L 161.67478 -289.290576 
L 161.039448 -289.150502 
L 160.404116 -288.945964 
L 159.768785 -288.671093 
L 159.133453 -288.319535 
L 158.498121 -287.88441 
L 157.862789 -287.358257 
L 157.227457 -286.73298 
L 156.592126 -285.999786 
L 155.956794 -285.149112 
L 155.321462 -284.170545 
L 154.68613 -283.052731 
L 154.050798 -281.783265 
L 153.415467 -280.34857 
L 152.780135 -278.733754 
L 152.144803 -276.922442 
L 151.509471 -274.896575 
L 150.874139 -272.636171 
L 150.238808 -270.119038 
L 149.603476 -267.320419 
L 148.968144 -264.212551 
L 148.332812 -260.764112 
L 147.697481 -256.939507 
L 147.062149 -252.697936 
L 146.426817 -247.992142 
L 145.791485 -243.774436 
L 145.156153 -238.056602 
L 144.520822 -231.686752 
L 143.88549 -224.568842 
L 143.250158 -228.09978 
L 142.614826 -231.213869 
L 141.979494 -234.609381 
L 141.344163 -237.754002 
L 140.708831 -240.540063 
L 140.073499 -242.82171 
L 139.438167 -245.331805 
L 138.802835 -246.218349 
L 138.167504 -248.049416 
L 137.532172 -248.457925 
L 136.89684 -250.742994 
L 136.261508 -247.388038 
L 135.626177 -243.654168 
L 134.990845 -239.488048 
L 134.355513 -234.822627 
L 133.720181 -229.57057 
L 133.084849 -227.821457 
L 132.449518 -221.583514 
L 131.814186 -216.515487 
L 131.178854 -209.399409 
L 130.543522 -210.495342 
L 129.90819 -211.468947 
L 129.272859 -212.889511 
L 128.637527 -210.45145 
L 128.002195 -211.38537 
L 127.366863 -203.98984 
L 126.731531 -197.205294 
L 126.0962 -194.185558 
L 125.460868 -192.72352 
L 124.825536 -193.890942 
L 124.190204 -194.519754 
L 123.554872 -195.502283 
L 122.919541 -196.959779 
L 122.284209 -197.911546 
L 121.648877 -198.484631 
L 121.013545 -199.232417 
L 120.378214 -200.215929 
L 119.742882 -200.710038 
L 119.10755 -200.023294 
L 118.472218 -200.045809 
L 117.836886 -200.625962 
L 117.201555 -201.478939 
L 116.566223 -202.229008 
L 115.930891 -202.509561 
L 115.295559 -202.50042 
L 114.660227 -202.973798 
L 114.024896 -202.064167 
L 113.389564 -199.656748 
L 112.754232 -199.830274 
L 112.1189 -198.143525 
L 111.483568 -197.984237 
L 110.848237 -199.091724 
L 110.212905 -191.055392 
L 109.577573 -190.958444 
L 108.942241 -189.526497 
L 108.306909 -188.793714 
L 107.671578 -188.025964 
L 107.036246 -187.896879 
L 106.400914 -186.878053 
L 105.765582 -187.223531 
L 105.130251 -186.544016 
L 104.494919 -186.001309 
L 103.859587 -186.176546 
L 103.224255 -183.985101 
L 102.588923 -176.77582 
L 101.953592 -170.395466 
L 101.31826 -171.925731 
L 100.682928 -167.654849 
L 100.047596 -158.026482 
L 99.412264 -152.94781 
L 98.776933 -146.68932 
L 98.141601 -138.423662 
L 97.506269 -132.112573 
L 96.870937 -126.955314 
L 96.235605 -116.681922 
L 95.600274 -107.562498 
L 94.964942 -100.633933 
L 94.32961 -98.177002 
L 93.694278 -97.307935 
L 93.058946 -94.531929 
L 92.423615 -86.854244 
L 91.788283 -80.485603 
L 91.152951 -77.973947 
L 90.517619 -77.122328 
L 89.882288 -77.474397 
L 89.246956 -77.773869 
L 88.611624 -78.332685 
L 87.976292 -78.624397 
L 87.34096 -76.367424 
L 86.705629 -68.900115 
L 86.070297 -69.026796 
L 85.434965 -69.033943 
L 84.799633 -66.930117 
L 84.164301 -67.068676 
L 83.52897 -67.132745 
L 82.893638 -67.369317 
L 82.258306 -67.53216 
L 81.622974 -67.777019 
L 80.987642 -67.914871 
L 80.352311 -68.146728 
L 79.716979 -68.425471 
L 79.081647 -68.720366 
L 78.446315 -68.944123 
L 77.810983 -67.551257 
L 77.175652 -67.275035 
L 76.54032 -67.558872 
L 75.904988 -66.878877 
L 75.269656 -67.140492 
L 74.634325 -64.451325 
L 73.998993 -64.59002 
L 73.363661 -64.741056 
L 72.728329 -64.906248 
L 72.092997 -65.033189 
L 71.457666 -65.254884 
L 70.822334 -65.488312 
L 70.187002 -65.734018 
L 69.55167 -66.000095 
L 68.916338 -66.083863 
L 68.281007 -66.422491 
L 67.645675 -65.915296 
L 67.010343 -66.222937 
L 66.375011 -66.710485 
L 65.739679 -67.097901 
L 65.104348 -68.001875 
L 64.469016 -64.715461 
L 63.833684 -61.330684 
z
" style="stroke: #1f77b4; stroke-opacity: 0.2"/>
    </defs>
    <g clip-path="url(#p0cb658ef9e)">
     <use xlink:href="#m39d8d5887c" x="0" y="310.86825" style="fill: #1f77b4; fill-opacity: 0.2; stroke: #1f77b4; stroke-opacity: 0.2"/>
    </g>
   </g>
   <g id="PolyCollection_2">
    <defs>
     <path id="md668e38151" d="M 63.833684 -81.525046 
L 63.833684 -63.326238 
L 64.469016 -66.388982 
L 65.104348 -67.338455 
L 65.739679 -65.983832 
L 66.375011 -59.323587 
L 67.010343 -58.024805 
L 67.645675 -59.749151 
L 68.281007 -61.543365 
L 68.916338 -62.949754 
L 69.55167 -64.828196 
L 70.187002 -66.430627 
L 70.822334 -66.96288 
L 71.457666 -66.50279 
L 72.092997 -65.8509 
L 72.728329 -67.043049 
L 73.363661 -67.879399 
L 73.998993 -68.461788 
L 74.634325 -67.244783 
L 75.269656 -68.153922 
L 75.904988 -68.216058 
L 76.54032 -67.686154 
L 77.175652 -67.298438 
L 77.810983 -68.033612 
L 78.446315 -68.649963 
L 79.081647 -68.712853 
L 79.716979 -67.992558 
L 80.352311 -67.327398 
L 80.987642 -68.132004 
L 81.622974 -68.790053 
L 82.258306 -69.14723 
L 82.893638 -49.92924 
L 83.52897 -49.65225 
L 84.164301 -51.107597 
L 84.799633 -53.447156 
L 85.434965 -55.008888 
L 86.070297 -55.860513 
L 86.705629 -55.095694 
L 87.34096 -55.147332 
L 87.976292 -54.193287 
L 88.611624 -53.364763 
L 89.246956 -52.977008 
L 89.882288 -52.727437 
L 90.517619 -52.500115 
L 91.152951 -52.01515 
L 91.788283 -51.707599 
L 92.423615 -52.431657 
L 93.058946 -54.061402 
L 93.694278 -55.681851 
L 94.32961 -57.287662 
L 94.964942 -58.887872 
L 95.600274 -60.298787 
L 96.235605 -61.319961 
L 96.870937 -61.775505 
L 97.506269 -53.388462 
L 98.141601 -53.776463 
L 98.776933 -53.563229 
L 99.412264 -55.465476 
L 100.047596 -57.550647 
L 100.682928 -59.424479 
L 101.31826 -60.499256 
L 101.953592 -60.369871 
L 102.588923 -61.268117 
L 103.224255 -60.654607 
L 103.859587 -61.887584 
L 104.494919 -63.683721 
L 105.130251 -62.879864 
L 105.765582 -57.515222 
L 106.400914 -57.954432 
L 107.036246 -58.135292 
L 107.671578 -59.838873 
L 108.306909 -62.168012 
L 108.942241 -62.840084 
L 109.577573 -64.512785 
L 110.212905 -65.094274 
L 110.848237 -66.905595 
L 111.483568 -69.055879 
L 112.1189 -70.427941 
L 112.754232 -69.234161 
L 113.389564 -68.445872 
L 114.024896 -69.244206 
L 114.660227 -69.839678 
L 115.295559 -71.393939 
L 115.930891 -69.267123 
L 116.566223 -68.06707 
L 117.201555 -68.712117 
L 117.836886 -70.482926 
L 118.472218 -72.997812 
L 119.10755 -76.024626 
L 119.742882 -79.409897 
L 120.378214 -79.843402 
L 121.013545 -79.274321 
L 121.648877 -81.078984 
L 122.284209 -78.98856 
L 122.919541 -82.065422 
L 123.554872 -83.486419 
L 124.190204 -86.754038 
L 124.825536 -85.964009 
L 125.460868 -88.381088 
L 126.0962 -89.967031 
L 126.731531 -88.374006 
L 127.366863 -85.190201 
L 128.002195 -86.036245 
L 128.637527 -84.609149 
L 129.272859 -85.063635 
L 129.90819 -85.214861 
L 130.543522 -86.14653 
L 131.178854 -84.11132 
L 131.814186 -85.159959 
L 132.449518 -84.938018 
L 133.084849 -84.747422 
L 133.720181 -84.78763 
L 134.355513 -82.071663 
L 134.990845 -82.308339 
L 135.626177 -81.191157 
L 136.261508 -82.643199 
L 136.89684 -82.623458 
L 137.532172 -83.620704 
L 138.167504 -80.984076 
L 138.802835 -83.245936 
L 139.438167 -84.863902 
L 140.073499 -84.733177 
L 140.708831 -85.964125 
L 141.344163 -86.147591 
L 141.979494 -87.918918 
L 142.614826 -89.838189 
L 143.250158 -91.599021 
L 143.88549 -93.421959 
L 144.520822 -89.875604 
L 145.156153 -88.153053 
L 145.791485 -88.157444 
L 146.426817 -88.139264 
L 147.062149 -87.448451 
L 147.697481 -87.336634 
L 148.332812 -87.876458 
L 148.968144 -88.576867 
L 149.603476 -89.243041 
L 150.238808 -89.455162 
L 150.874139 -91.16332 
L 151.509471 -92.80054 
L 152.144803 -93.038472 
L 152.780135 -92.588662 
L 153.415467 -91.970534 
L 154.050798 -91.424602 
L 154.68613 -91.166382 
L 155.321462 -91.215808 
L 155.956794 -91.856766 
L 156.592126 -92.5271 
L 157.227457 -93.794202 
L 157.862789 -94.937421 
L 158.498121 -95.812708 
L 159.133453 -92.095055 
L 159.768785 -89.954538 
L 160.404116 -89.613528 
L 161.039448 -90.332683 
L 161.67478 -90.319818 
L 162.310112 -90.471372 
L 162.945444 -91.256101 
L 163.580775 -92.256823 
L 164.216107 -92.663284 
L 164.851439 -93.46206 
L 165.486771 -93.328219 
L 166.122102 -94.04649 
L 166.757434 -94.899152 
L 167.392766 -96.09326 
L 168.028098 -97.23327 
L 168.66343 -96.153463 
L 169.298761 -97.200123 
L 169.934093 -97.841959 
L 170.569425 -98.927392 
L 171.204757 -95.783976 
L 171.840089 -96.103234 
L 172.47542 -96.44684 
L 173.110752 -96.946969 
L 173.746084 -97.204803 
L 174.381416 -97.937254 
L 175.016748 -98.119446 
L 175.652079 -96.968322 
L 176.287411 -98.006051 
L 176.922743 -96.024686 
L 177.558075 -92.895508 
L 178.193407 -93.559637 
L 178.828738 -94.108978 
L 179.46407 -94.981482 
L 180.099402 -95.815571 
L 180.734734 -96.808285 
L 181.370065 -97.102812 
L 182.005397 -98.108392 
L 182.640729 -98.672391 
L 183.276061 -99.121121 
L 183.911393 -99.449518 
L 184.546724 -100.16011 
L 185.182056 -100.966532 
L 185.817388 -101.594017 
L 186.45272 -97.733243 
L 187.088052 -98.652655 
L 187.723383 -94.757935 
L 188.358715 -95.761225 
L 188.994047 -94.042821 
L 189.629379 -90.690274 
L 190.264711 -88.653563 
L 190.900042 -85.831089 
L 191.535374 -86.78486 
L 192.170706 -88.021575 
L 192.806038 -89.136085 
L 193.44137 -87.682271 
L 194.076701 -88.143778 
L 194.712033 -88.59797 
L 195.347365 -88.854195 
L 195.982697 -89.063218 
L 196.618028 -89.448819 
L 197.25336 -89.960957 
L 197.888692 -90.282777 
L 198.524024 -90.820155 
L 199.159356 -91.437503 
L 199.794687 -92.346921 
L 200.430019 -93.256899 
L 201.065351 -94.129054 
L 201.700683 -94.969483 
L 202.336015 -95.721411 
L 202.971346 -96.62302 
L 203.606678 -97.484898 
L 204.24201 -98.384287 
L 204.877342 -99.254559 
L 205.512674 -100.139875 
L 206.148005 -101.034019 
L 206.783337 -101.621215 
L 207.418669 -102.440881 
L 208.054001 -103.321007 
L 208.689333 -99.295581 
L 209.324664 -100.310939 
L 209.959996 -99.361833 
L 210.595328 -100.385351 
L 211.23066 -101.469523 
L 211.865991 -102.544253 
L 212.501323 -103.553343 
L 213.136655 -104.570423 
L 213.771987 -105.71895 
L 214.407319 -106.829918 
L 215.04265 -102.631405 
L 215.677982 -103.268925 
L 216.313314 -102.440639 
L 216.948646 -102.757246 
L 217.583978 -102.455273 
L 218.219309 -102.57495 
L 218.854641 -102.88561 
L 219.489973 -103.77066 
L 220.125305 -104.229475 
L 220.760637 -104.927791 
L 221.395968 -105.901341 
L 222.0313 -106.71603 
L 222.666632 -107.450116 
L 223.301964 -108.194028 
L 223.937296 -104.574057 
L 224.572627 -105.779954 
L 225.207959 -107.023269 
L 225.843291 -108.233789 
L 226.478623 -104.884981 
L 227.113954 -100.133502 
L 227.749286 -95.315921 
L 228.384618 -92.730165 
L 229.01995 -94.277008 
L 229.655282 -93.335464 
L 230.290613 -94.574503 
L 230.925945 -96.074248 
L 231.561277 -97.569589 
L 232.196609 -99.047217 
L 232.831941 -100.523681 
L 233.467272 -102.070336 
L 234.102604 -103.45286 
L 234.737936 -104.70191 
L 235.373268 -100.407659 
L 236.0086 -102.003511 
L 236.643931 -103.365009 
L 237.279263 -104.723557 
L 237.914595 -106.265896 
L 238.549927 -107.665439 
L 239.185259 -109.254472 
L 239.82059 -110.843592 
L 240.455922 -112.157892 
L 241.091254 -113.488127 
L 241.726586 -114.693079 
L 242.361917 -112.642942 
L 242.997249 -113.77479 
L 243.632581 -109.104151 
L 244.267913 -104.860727 
L 244.903245 -106.728986 
L 245.538576 -107.599678 
L 246.173908 -108.727251 
L 246.80924 -110.532692 
L 247.444572 -112.363591 
L 248.079904 -113.984231 
L 248.715235 -113.497803 
L 249.350567 -115.109329 
L 249.985899 -116.820346 
L 250.621231 -118.475816 
L 251.256563 -119.938909 
L 251.891894 -115.249194 
L 252.527226 -112.139862 
L 253.162558 -113.821313 
L 253.79789 -110.130194 
L 254.433222 -111.374279 
L 255.068553 -113.198086 
L 255.703885 -109.353549 
L 256.339217 -110.047868 
L 256.974549 -111.794168 
L 257.60988 -113.527741 
L 258.245212 -114.825435 
L 258.880544 -116.285345 
L 259.515876 -117.838266 
L 260.151208 -118.77165 
L 260.786539 -120.26683 
L 261.421871 -120.091977 
L 262.057203 -120.951534 
L 262.692535 -122.474449 
L 263.327867 -124.448052 
L 263.963198 -118.414901 
L 264.59853 -110.532932 
L 265.233862 -107.953772 
L 265.869194 -105.817822 
L 266.504526 -103.01592 
L 267.139857 -105.211507 
L 267.775189 -108.18244 
L 268.410521 -107.610792 
L 269.045853 -106.879779 
L 269.681185 -109.53361 
L 270.316516 -111.929786 
L 270.951848 -114.610718 
L 271.58718 -117.49264 
L 272.222512 -120.514412 
L 272.857843 -123.630151 
L 273.493175 -124.478587 
L 274.128507 -124.62395 
L 274.763839 -127.62172 
L 275.399171 -129.75217 
L 276.034502 -132.732646 
L 276.669834 -135.752888 
L 277.305166 -138.790462 
L 277.940498 -141.827641 
L 278.57583 -144.850336 
L 279.211161 -147.847312 
L 279.846493 -150.478868 
L 280.481825 -152.533566 
L 281.117157 -153.153364 
L 281.752489 -155.936586 
L 282.38782 -158.686422 
L 283.023152 -161.396463 
L 283.658484 -164.061639 
L 284.293816 -166.677974 
L 284.929148 -155.780645 
L 285.564479 -144.070925 
L 286.199811 -147.194872 
L 286.835143 -150.264955 
L 287.470475 -153.276974 
L 288.105806 -156.227704 
L 288.741138 -159.114728 
L 289.37647 -161.936305 
L 290.011802 -159.536664 
L 290.647134 -162.328958 
L 291.282465 -165.058026 
L 291.917797 -163.460092 
L 292.553129 -159.90942 
L 293.188461 -162.504604 
L 293.823793 -157.159386 
L 294.459124 -155.288737 
L 295.094456 -151.695173 
L 295.729788 -147.298384 
L 296.36512 -143.641939 
L 297.000452 -138.920969 
L 297.635783 -138.945525 
L 298.271115 -139.346694 
L 298.906447 -141.126656 
L 299.541779 -137.865808 
L 300.177111 -135.401042 
L 300.812442 -138.143332 
L 301.447774 -135.433269 
L 302.083106 -136.008546 
L 302.718438 -136.694703 
L 303.353769 -136.280544 
L 303.989101 -132.306199 
L 304.624433 -134.831099 
L 305.259765 -137.478608 
L 305.895097 -140.208507 
L 306.530428 -142.989984 
L 307.16576 -145.799078 
L 307.801092 -148.616945 
L 308.436424 -151.428655 
L 309.071756 -154.222321 
L 309.707087 -149.296346 
L 310.342419 -152.136521 
L 310.977751 -141.480783 
L 311.613083 -144.539815 
L 312.248415 -147.568095 
L 312.883746 -145.538645 
L 313.519078 -148.527377 
L 314.15441 -140.664496 
L 314.789742 -143.775455 
L 315.425073 -146.849958 
L 316.060405 -141.571171 
L 316.695737 -144.687807 
L 317.331069 -147.762924 
L 317.966401 -139.340371 
L 318.601732 -142.546876 
L 319.237064 -145.705724 
L 319.872396 -148.811233 
L 320.507728 -151.858954 
L 321.14306 -154.84546 
L 321.778391 -145.041135 
L 322.413723 -148.199513 
L 323.049055 -151.293665 
L 323.684387 -154.321051 
L 324.319719 -157.279837 
L 324.95505 -149.131226 
L 325.590382 -144.993058 
L 326.225714 -137.907725 
L 326.861046 -134.822193 
L 327.496378 -133.031097 
L 328.131709 -130.899056 
L 328.767041 -129.540856 
L 329.402373 -129.310163 
L 330.037705 -132.410498 
L 330.673036 -135.580149 
L 331.308368 -138.740238 
L 331.9437 -141.877927 
L 332.579032 -134.648711 
L 333.214364 -137.88677 
L 333.849695 -137.657818 
L 334.485027 -140.816434 
L 335.120359 -143.943495 
L 335.755691 -142.562918 
L 336.391023 -138.508222 
L 337.026354 -141.620631 
L 337.661686 -144.706031 
L 338.297018 -147.755293 
L 338.93235 -146.85541 
L 339.567682 -142.009915 
L 340.203013 -145.060981 
L 340.838345 -148.080354 
L 341.473677 -151.060084 
L 342.109009 -153.993858 
L 342.744341 -156.876698 
L 343.379672 -159.70472 
L 344.015004 -162.474948 
L 344.650336 -151.527131 
L 345.285668 -154.511987 
L 345.920999 -148.108578 
L 346.556331 -151.166675 
L 347.191663 -154.164811 
L 347.826995 -157.100144 
L 348.462327 -159.970576 
L 349.097658 -162.77463 
L 349.73299 -155.28048 
L 350.368322 -158.197013 
L 351.003654 -161.047031 
L 351.638986 -150.302065 
L 352.274317 -145.407996 
L 352.909649 -148.557369 
L 353.544981 -151.642496 
L 354.180313 -144.601611 
L 354.815645 -147.77453 
L 355.450976 -138.054584 
L 356.086308 -129.47902 
L 356.72164 -132.996354 
L 357.356972 -127.210408 
L 357.992304 -130.76647 
L 358.627635 -134.266327 
L 359.262967 -137.704283 
L 359.898299 -141.075907 
L 360.533631 -144.377817 
L 361.168962 -147.607499 
L 361.804294 -147.403333 
L 362.439626 -150.537004 
L 363.074958 -153.600379 
L 363.71029 -156.592053 
L 364.345621 -159.511146 
L 364.980953 -161.576514 
L 365.616285 -164.359788 
L 366.251617 -164.754387 
L 366.886949 -167.440693 
L 367.52228 -170.059286 
L 368.157612 -172.610188 
L 368.792944 -175.093695 
L 369.428276 -162.081879 
L 370.063608 -164.856764 
L 370.698939 -167.559814 
L 371.334271 -161.197186 
L 371.969603 -163.988043 
L 372.604935 -166.708285 
L 373.240267 -169.357979 
L 373.875598 -167.429322 
L 374.51093 -170.045737 
L 375.146262 -172.594943 
L 375.781594 -175.077166 
L 376.416925 -177.492868 
L 377.052257 -171.475434 
L 377.687589 -157.626481 
L 378.322921 -160.508692 
L 378.958253 -163.319948 
L 379.593584 -151.829097 
L 380.228916 -154.871027 
L 380.864248 -157.839271 
L 381.49958 -160.733368 
L 382.134912 -149.800797 
L 382.770243 -152.906441 
L 383.405575 -144.918516 
L 384.040907 -148.140364 
L 384.676239 -145.352158 
L 385.311571 -148.541648 
L 385.946902 -151.659987 
L 386.582234 -144.847512 
L 387.217566 -138.850884 
L 387.852898 -142.17021 
L 387.852898 -276.670618 
L 387.852898 -276.670618 
L 387.217566 -274.921007 
L 386.582234 -278.108049 
L 385.946902 -281.047256 
L 385.311571 -279.826469 
L 384.676239 -278.448458 
L 384.040907 -281.81598 
L 383.405575 -280.553917 
L 382.770243 -283.296754 
L 382.134912 -282.247268 
L 381.49958 -283.957777 
L 380.864248 -283.143479 
L 380.228916 -282.20815 
L 379.593584 -281.141055 
L 378.958253 -282.511137 
L 378.322921 -281.673995 
L 377.687589 -280.715787 
L 377.052257 -280.814791 
L 376.416925 -283.129827 
L 375.781594 -282.675638 
L 375.146262 -282.136921 
L 374.51093 -281.506191 
L 373.875598 -280.775306 
L 373.240267 -283.61997 
L 372.604935 -282.997418 
L 371.969603 -282.273189 
L 371.334271 -281.438288 
L 370.698939 -284.042911 
L 370.063608 -283.401335 
L 369.428276 -282.655559 
L 368.792944 -282.997015 
L 368.157612 -282.477367 
L 367.52228 -281.867054 
L 366.886949 -281.158051 
L 366.251617 -280.341627 
L 365.616285 -282.636778 
L 364.980953 -281.832996 
L 364.345621 -282.789342 
L 363.71029 -281.874216 
L 363.074958 -280.82987 
L 362.439626 -279.644803 
L 361.804294 -278.30643 
L 361.168962 -281.183679 
L 360.533631 -279.868125 
L 359.898299 -278.385578 
L 359.262967 -276.720931 
L 358.627635 -274.857548 
L 357.992304 -272.777048 
L 357.356972 -270.459051 
L 356.72164 -273.898222 
L 356.086308 -271.717868 
L 355.450976 -274.542612 
L 354.815645 -276.822991 
L 354.180313 -275.229956 
L 353.544981 -278.030317 
L 352.909649 -276.616611 
L 352.274317 -275.030369 
L 351.638986 -278.189267 
L 351.003654 -279.773191 
L 350.368322 -278.711082 
L 349.73299 -277.509586 
L 349.097658 -279.903749 
L 348.462327 -278.893474 
L 347.826995 -277.748821 
L 347.191663 -276.45775 
L 346.556331 -275.00704 
L 345.920999 -273.382141 
L 345.285668 -276.14535 
L 344.650336 -274.683189 
L 344.015004 -275.986541 
L 343.379672 -274.720498 
L 342.744341 -273.299813 
L 342.109009 -271.71033 
L 341.473677 -269.936396 
L 340.838345 -267.960644 
L 340.203013 -265.76372 
L 339.567682 -263.323947 
L 338.93235 -266.244411 
L 338.297018 -269.07451 
L 337.661686 -266.948991 
L 337.026354 -264.587253 
L 336.391023 -261.965833 
L 335.755691 -265.040342 
L 335.120359 -268.031728 
L 334.485027 -265.728503 
L 333.849695 -263.17103 
L 333.214364 -265.941557 
L 332.579032 -263.320547 
L 331.9437 -266.009515 
L 331.308368 -263.501773 
L 330.673036 -260.719303 
L 330.037705 -257.633627 
L 329.402373 -255.927293 
L 328.767041 -258.722093 
L 328.131709 -261.860871 
L 327.496378 -265.139779 
L 326.861046 -268.409461 
L 326.225714 -271.79399 
L 325.590382 -274.694041 
L 324.95505 -277.934341 
L 324.319719 -280.388687 
L 323.684387 -279.269467 
L 323.049055 -278.004215 
L 322.413723 -276.5798 
L 321.778391 -274.981792 
L 321.14306 -276.975992 
L 320.507728 -275.576751 
L 319.872396 -274.007896 
L 319.237064 -272.253851 
L 318.601732 -270.29738 
L 317.966401 -268.119338 
L 317.331069 -270.495443 
L 316.695737 -268.470966 
L 316.060405 -266.219608 
L 315.425073 -269.174738 
L 314.789742 -267.032085 
L 314.15441 -264.651302 
L 313.519078 -267.008605 
L 312.883746 -264.75446 
L 312.248415 -267.74651 
L 311.613083 -265.520262 
L 310.977751 -263.048211 
L 310.342419 -264.391461 
L 309.707087 -262.04097 
L 309.071756 -264.688959 
L 308.436424 -262.417395 
L 307.801092 -259.897284 
L 307.16576 -257.102709 
L 306.530428 -254.003968 
L 305.895097 -250.566672 
L 305.259765 -246.750493 
L 304.624433 -242.507396 
L 303.989101 -237.779024 
L 303.353769 -240.350406 
L 302.718438 -242.720419 
L 302.083106 -244.644058 
L 301.447774 -246.691271 
L 300.812442 -249.509691 
L 300.177111 -245.54158 
L 299.541779 -248.331437 
L 298.906447 -251.109738 
L 298.271115 -252.13516 
L 297.635783 -254.366572 
L 297.000452 -256.825667 
L 296.36512 -259.66238 
L 295.729788 -262.564481 
L 295.094456 -265.36774 
L 294.459124 -268.210247 
L 293.823793 -271.04021 
L 293.188461 -273.648477 
L 292.553129 -272.974837 
L 291.917797 -275.803995 
L 291.282465 -278.59349 
L 290.647134 -277.559446 
L 290.011802 -276.390569 
L 289.37647 -279.34566 
L 288.741138 -278.279411 
L 288.105806 -277.073988 
L 287.470475 -275.716878 
L 286.835143 -274.194328 
L 286.199811 -272.491182 
L 285.564479 -270.590677 
L 284.929148 -271.751886 
L 284.293816 -272.752009 
L 283.658484 -271.383046 
L 283.023152 -269.853171 
L 282.38782 -268.14737 
L 281.752489 -266.24895 
L 281.117157 -264.139272 
L 280.481825 -266.212221 
L 279.846493 -266.960402 
L 279.211161 -266.565785 
L 278.57583 -264.260784 
L 277.940498 -261.702451 
L 277.305166 -258.864864 
L 276.669834 -255.718474 
L 276.034502 -252.229279 
L 275.399171 -248.357717 
L 274.763839 -249.159449 
L 274.128507 -244.874615 
L 273.493175 -247.386429 
L 272.857843 -249.582942 
L 272.222512 -245.228283 
L 271.58718 -240.386479 
L 270.951848 -234.990951 
L 270.316516 -228.958779 
L 269.681185 -222.183266 
L 269.045853 -221.405286 
L 268.410521 -224.088719 
L 267.775189 -226.772579 
L 267.139857 -223.095682 
L 266.504526 -215.457402 
L 265.869194 -218.305027 
L 265.233862 -221.142344 
L 264.59853 -224.009855 
L 263.963198 -225.967292 
L 263.327867 -228.217212 
L 262.692535 -221.638952 
L 262.057203 -214.159906 
L 261.421871 -205.543714 
L 260.786539 -195.394389 
L 260.151208 -190.877168 
L 259.515876 -184.931411 
L 258.880544 -184.576786 
L 258.245212 -184.579051 
L 257.60988 -184.977341 
L 256.974549 -184.240271 
L 256.339217 -183.555217 
L 255.703885 -184.738019 
L 255.068553 -186.402685 
L 254.433222 -185.30555 
L 253.79789 -185.930133 
L 253.162558 -187.640185 
L 252.527226 -187.345238 
L 251.891894 -189.140037 
L 251.256563 -190.543839 
L 250.621231 -186.526262 
L 249.985899 -185.799051 
L 249.350567 -184.832662 
L 248.715235 -184.472478 
L 248.079904 -186.143626 
L 247.444572 -185.92933 
L 246.80924 -183.500534 
L 246.173908 -182.515309 
L 245.538576 -183.287507 
L 244.903245 -184.376748 
L 244.267913 -181.268393 
L 243.632581 -182.877049 
L 242.997249 -184.281833 
L 242.361917 -184.951304 
L 241.726586 -186.774507 
L 241.091254 -181.643328 
L 240.455922 -177.446877 
L 239.82059 -173.578573 
L 239.185259 -172.040503 
L 238.549927 -170.42242 
L 237.914595 -170.266266 
L 237.279263 -169.663062 
L 236.643931 -169.736749 
L 236.0086 -169.872753 
L 235.373268 -169.416659 
L 234.737936 -170.751302 
L 234.102604 -166.538563 
L 233.467272 -163.272431 
L 232.831941 -161.618989 
L 232.196609 -159.218963 
L 231.561277 -157.03938 
L 230.925945 -155.277654 
L 230.290613 -153.941536 
L 229.655282 -154.015674 
L 229.01995 -155.530686 
L 228.384618 -154.329713 
L 227.749286 -155.793749 
L 227.113954 -156.636018 
L 226.478623 -157.33431 
L 225.843291 -158.325193 
L 225.207959 -156.357293 
L 224.572627 -155.440163 
L 223.937296 -154.922205 
L 223.301964 -155.752592 
L 222.666632 -152.206985 
L 222.0313 -148.976086 
L 221.395968 -146.336727 
L 220.760637 -145.960294 
L 220.125305 -146.295844 
L 219.489973 -146.923099 
L 218.854641 -147.011847 
L 218.219309 -147.796547 
L 217.583978 -148.71153 
L 216.948646 -149.797021 
L 216.313314 -150.64284 
L 215.677982 -151.853196 
L 215.04265 -152.477787 
L 214.407319 -153.091374 
L 213.771987 -151.22486 
L 213.136655 -149.958819 
L 212.501323 -147.714621 
L 211.865991 -145.629433 
L 211.23066 -144.970936 
L 210.595328 -144.31532 
L 209.959996 -144.057782 
L 209.324664 -145.188999 
L 208.689333 -143.018145 
L 208.054001 -143.4277 
L 207.418669 -141.35666 
L 206.783337 -139.196827 
L 206.148005 -136.393719 
L 205.512674 -135.45469 
L 204.877342 -134.368016 
L 204.24201 -133.882137 
L 203.606678 -133.057678 
L 202.971346 -132.697613 
L 202.336015 -131.551003 
L 201.700683 -131.586169 
L 201.065351 -131.418124 
L 200.430019 -131.186393 
L 199.794687 -130.849723 
L 199.159356 -130.573871 
L 198.524024 -130.959515 
L 197.888692 -131.464652 
L 197.25336 -132.175847 
L 196.618028 -132.759204 
L 195.982697 -133.47376 
L 195.347365 -134.325373 
L 194.712033 -135.173348 
L 194.076701 -135.911782 
L 193.44137 -136.672492 
L 192.806038 -137.904208 
L 192.170706 -137.697082 
L 191.535374 -136.060982 
L 190.900042 -136.276652 
L 190.264711 -137.333748 
L 189.629379 -138.491835 
L 188.994047 -139.306556 
L 188.358715 -140.408474 
L 187.723383 -140.2743 
L 187.088052 -140.812456 
L 186.45272 -138.608892 
L 185.817388 -138.953632 
L 185.182056 -136.30344 
L 184.546724 -136.157295 
L 183.911393 -136.288509 
L 183.276061 -136.896027 
L 182.640729 -137.426902 
L 182.005397 -137.865704 
L 181.370065 -137.046158 
L 180.734734 -137.747837 
L 180.099402 -136.163434 
L 179.46407 -136.23211 
L 178.828738 -136.256576 
L 178.193407 -136.802258 
L 177.558075 -137.250863 
L 176.922743 -138.001285 
L 176.287411 -138.960707 
L 175.652079 -138.013811 
L 175.016748 -139.049463 
L 174.381416 -139.840125 
L 173.746084 -140.154679 
L 173.110752 -140.94635 
L 172.47542 -141.585054 
L 171.840089 -142.370889 
L 171.204757 -143.197996 
L 170.569425 -144.060842 
L 169.934093 -143.64785 
L 169.298761 -144.194208 
L 168.66343 -144.081896 
L 168.028098 -145.296239 
L 167.392766 -143.262375 
L 166.757434 -142.258671 
L 166.122102 -142.576095 
L 165.486771 -143.112013 
L 164.851439 -144.22583 
L 164.216107 -144.728965 
L 163.580775 -145.628726 
L 162.945444 -145.920769 
L 162.310112 -146.552315 
L 161.67478 -147.685926 
L 161.039448 -148.918569 
L 160.404116 -149.720789 
L 159.768785 -151.118758 
L 159.133453 -152.629783 
L 158.498121 -153.814743 
L 157.862789 -149.390483 
L 157.227457 -149.444166 
L 156.592126 -149.225516 
L 155.956794 -150.025943 
L 155.321462 -150.888558 
L 154.68613 -152.145497 
L 154.050798 -153.539631 
L 153.415467 -155.029639 
L 152.780135 -156.554748 
L 152.144803 -158.064609 
L 151.509471 -159.348796 
L 150.874139 -158.528804 
L 150.238808 -156.972349 
L 149.603476 -158.323503 
L 148.968144 -159.426106 
L 148.332812 -160.543584 
L 147.697481 -161.819094 
L 147.062149 -163.456432 
L 146.426817 -165.285108 
L 145.791485 -166.944553 
L 145.156153 -168.630316 
L 144.520822 -170.670063 
L 143.88549 -172.568227 
L 143.250158 -168.888809 
L 142.614826 -168.587718 
L 141.979494 -167.742592 
L 141.344163 -167.578825 
L 140.708831 -169.244833 
L 140.073499 -170.170523 
L 139.438167 -172.051297 
L 138.802835 -172.563101 
L 138.167504 -170.775401 
L 137.532172 -173.04006 
L 136.89684 -174.36014 
L 136.261508 -176.335517 
L 135.626177 -177.29898 
L 134.990845 -179.657955 
L 134.355513 -181.644147 
L 133.720181 -184.16767 
L 133.084849 -186.284583 
L 132.449518 -188.535637 
L 131.814186 -190.842304 
L 131.178854 -192.513779 
L 130.543522 -195.257565 
L 129.90819 -197.097884 
L 129.272859 -199.43925 
L 128.637527 -201.689807 
L 128.002195 -204.579407 
L 127.366863 -206.694756 
L 126.731531 -209.785922 
L 126.0962 -212.800577 
L 125.460868 -214.426322 
L 124.825536 -215.053088 
L 124.190204 -218.088984 
L 123.554872 -216.346971 
L 122.919541 -218.377373 
L 122.284209 -217.999487 
L 121.648877 -221.491044 
L 121.013545 -223.367836 
L 120.378214 -226.6779 
L 119.742882 -229.659569 
L 119.10755 -222.084378 
L 118.472218 -213.561401 
L 117.836886 -203.90478 
L 117.201555 -192.848127 
L 116.566223 -179.97354 
L 115.930891 -164.523373 
L 115.295559 -149.264729 
L 114.660227 -149.566149 
L 114.024896 -150.991059 
L 113.389564 -152.319582 
L 112.754232 -154.373565 
L 112.1189 -156.522044 
L 111.483568 -157.404944 
L 110.848237 -153.681653 
L 110.212905 -153.882021 
L 109.577573 -155.535391 
L 108.942241 -156.171257 
L 108.306909 -157.876359 
L 107.671578 -153.732025 
L 107.036246 -154.435779 
L 106.400914 -156.482081 
L 105.765582 -158.454298 
L 105.130251 -136.819845 
L 104.494919 -138.67926 
L 103.859587 -138.284872 
L 103.224255 -139.09445 
L 102.588923 -141.030322 
L 101.953592 -142.28263 
L 101.31826 -144.165523 
L 100.682928 -145.371588 
L 100.047596 -145.515808 
L 99.412264 -145.235494 
L 98.776933 -145.528658 
L 98.141601 -147.694778 
L 97.506269 -149.657602 
L 96.870937 -123.745681 
L 96.235605 -117.274294 
L 95.600274 -117.774337 
L 94.964942 -117.536422 
L 94.32961 -115.781842 
L 93.694278 -114.51687 
L 93.058946 -112.76405 
L 92.423615 -111.366901 
L 91.788283 -112.3316 
L 91.152951 -113.878244 
L 90.517619 -115.509149 
L 89.882288 -117.1078 
L 89.246956 -118.757007 
L 88.611624 -120.491501 
L 87.976292 -122.366197 
L 87.34096 -124.301048 
L 86.705629 -126.011445 
L 86.070297 -128.018588 
L 85.434965 -129.378592 
L 84.799633 -130.064537 
L 84.164301 -127.76965 
L 83.52897 -128.752695 
L 82.893638 -130.959431 
L 82.258306 -92.088556 
L 81.622974 -92.497549 
L 80.987642 -92.500774 
L 80.352311 -91.76203 
L 79.716979 -92.581531 
L 79.081647 -93.421081 
L 78.446315 -94.132926 
L 77.810983 -91.752994 
L 77.175652 -91.764542 
L 76.54032 -92.644604 
L 75.904988 -93.580592 
L 75.269656 -94.412032 
L 74.634325 -92.371657 
L 73.998993 -93.398196 
L 73.363661 -93.961484 
L 72.728329 -94.322543 
L 72.092997 -92.448416 
L 71.457666 -93.722527 
L 70.822334 -95.063403 
L 70.187002 -96.14309 
L 69.55167 -95.843476 
L 68.916338 -93.846088 
L 68.281007 -94.730539 
L 67.645675 -95.618226 
L 67.010343 -97.295548 
L 66.375011 -100.887473 
L 65.739679 -76.392105 
L 65.104348 -77.664584 
L 64.469016 -79.14189 
L 63.833684 -81.525046 
z
" style="stroke: #ff7f0e; stroke-opacity: 0.2"/>
    </defs>
    <g clip-path="url(#p0cb658ef9e)">
     <use xlink:href="#md668e38151" x="0" y="310.86825" style="fill: #ff7f0e; fill-opacity: 0.2; stroke: #ff7f0e; stroke-opacity: 0.2"/>
    </g>
   </g>
   <g id="matplotlib.axis_1">
    <g id="xtick_1">
     <g id="line2d_1">
      <path d="M 63.198352 273.312 
L 63.198352 7.2 
" clip-path="url(#p0cb658ef9e)" style="fill: none; stroke: #b0b0b0; stroke-width: 0.8; stroke-linecap: square"/>
     </g>
     <g id="line2d_2">
      <defs>
       <path id="mcf658927c7" d="M 0 0 
L 0 3.5 
" style="stroke: #000000; stroke-width: 0.8"/>
      </defs>
      <g>
       <use xlink:href="#mcf658927c7" x="63.198352" y="273.312" style="stroke: #000000; stroke-width: 0.8"/>
      </g>
     </g>
     <g id="text_1">
      <!-- 0 -->
      <g transform="translate(60.017102 287.910437) scale(0.1 -0.1)">
       <defs>
        <path id="DejaVuSans-30" d="M 2034 4250 
Q 1547 4250 1301 3770 
Q 1056 3291 1056 2328 
Q 1056 1369 1301 889 
Q 1547 409 2034 409 
Q 2525 409 2770 889 
Q 3016 1369 3016 2328 
Q 3016 3291 2770 3770 
Q 2525 4250 2034 4250 
z
M 2034 4750 
Q 2819 4750 3233 4129 
Q 3647 3509 3647 2328 
Q 3647 1150 3233 529 
Q 2819 -91 2034 -91 
Q 1250 -91 836 529 
Q 422 1150 422 2328 
Q 422 3509 836 4129 
Q 1250 4750 2034 4750 
z
" transform="scale(0.015625)"/>
       </defs>
       <use xlink:href="#DejaVuSans-30"/>
      </g>
     </g>
    </g>
    <g id="xtick_2">
     <g id="line2d_3">
      <path d="M 126.731531 273.312 
L 126.731531 7.2 
" clip-path="url(#p0cb658ef9e)" style="fill: none; stroke: #b0b0b0; stroke-width: 0.8; stroke-linecap: square"/>
     </g>
     <g id="line2d_4">
      <g>
       <use xlink:href="#mcf658927c7" x="126.731531" y="273.312" style="stroke: #000000; stroke-width: 0.8"/>
      </g>
     </g>
     <g id="text_2">
      <!-- 100 -->
      <g transform="translate(117.187781 287.910437) scale(0.1 -0.1)">
       <defs>
        <path id="DejaVuSans-31" d="M 794 531 
L 1825 531 
L 1825 4091 
L 703 3866 
L 703 4441 
L 1819 4666 
L 2450 4666 
L 2450 531 
L 3481 531 
L 3481 0 
L 794 0 
L 794 531 
z
" transform="scale(0.015625)"/>
       </defs>
       <use xlink:href="#DejaVuSans-31"/>
       <use xlink:href="#DejaVuSans-30" x="63.623047"/>
       <use xlink:href="#DejaVuSans-30" x="127.246094"/>
      </g>
     </g>
    </g>
    <g id="xtick_3">
     <g id="line2d_5">
      <path d="M 190.264711 273.312 
L 190.264711 7.2 
" clip-path="url(#p0cb658ef9e)" style="fill: none; stroke: #b0b0b0; stroke-width: 0.8; stroke-linecap: square"/>
     </g>
     <g id="line2d_6">
      <g>
       <use xlink:href="#mcf658927c7" x="190.264711" y="273.312" style="stroke: #000000; stroke-width: 0.8"/>
      </g>
     </g>
     <g id="text_3">
      <!-- 200 -->
      <g transform="translate(180.720961 287.910437) scale(0.1 -0.1)">
       <defs>
        <path id="DejaVuSans-32" d="M 1228 531 
L 3431 531 
L 3431 0 
L 469 0 
L 469 531 
Q 828 903 1448 1529 
Q 2069 2156 2228 2338 
Q 2531 2678 2651 2914 
Q 2772 3150 2772 3378 
Q 2772 3750 2511 3984 
Q 2250 4219 1831 4219 
Q 1534 4219 1204 4116 
Q 875 4013 500 3803 
L 500 4441 
Q 881 4594 1212 4672 
Q 1544 4750 1819 4750 
Q 2544 4750 2975 4387 
Q 3406 4025 3406 3419 
Q 3406 3131 3298 2873 
Q 3191 2616 2906 2266 
Q 2828 2175 2409 1742 
Q 1991 1309 1228 531 
z
" transform="scale(0.015625)"/>
       </defs>
       <use xlink:href="#DejaVuSans-32"/>
       <use xlink:href="#DejaVuSans-30" x="63.623047"/>
       <use xlink:href="#DejaVuSans-30" x="127.246094"/>
      </g>
     </g>
    </g>
    <g id="xtick_4">
     <g id="line2d_7">
      <path d="M 253.79789 273.312 
L 253.79789 7.2 
" clip-path="url(#p0cb658ef9e)" style="fill: none; stroke: #b0b0b0; stroke-width: 0.8; stroke-linecap: square"/>
     </g>
     <g id="line2d_8">
      <g>
       <use xlink:href="#mcf658927c7" x="253.79789" y="273.312" style="stroke: #000000; stroke-width: 0.8"/>
      </g>
     </g>
     <g id="text_4">
      <!-- 300 -->
      <g transform="translate(244.25414 287.910437) scale(0.1 -0.1)">
       <defs>
        <path id="DejaVuSans-33" d="M 2597 2516 
Q 3050 2419 3304 2112 
Q 3559 1806 3559 1356 
Q 3559 666 3084 287 
Q 2609 -91 1734 -91 
Q 1441 -91 1130 -33 
Q 819 25 488 141 
L 488 750 
Q 750 597 1062 519 
Q 1375 441 1716 441 
Q 2309 441 2620 675 
Q 2931 909 2931 1356 
Q 2931 1769 2642 2001 
Q 2353 2234 1838 2234 
L 1294 2234 
L 1294 2753 
L 1863 2753 
Q 2328 2753 2575 2939 
Q 2822 3125 2822 3475 
Q 2822 3834 2567 4026 
Q 2313 4219 1838 4219 
Q 1578 4219 1281 4162 
Q 984 4106 628 3988 
L 628 4550 
Q 988 4650 1302 4700 
Q 1616 4750 1894 4750 
Q 2613 4750 3031 4423 
Q 3450 4097 3450 3541 
Q 3450 3153 3228 2886 
Q 3006 2619 2597 2516 
z
" transform="scale(0.015625)"/>
       </defs>
       <use xlink:href="#DejaVuSans-33"/>
       <use xlink:href="#DejaVuSans-30" x="63.623047"/>
       <use xlink:href="#DejaVuSans-30" x="127.246094"/>
      </g>
     </g>
    </g>
    <g id="xtick_5">
     <g id="line2d_9">
      <path d="M 317.331069 273.312 
L 317.331069 7.2 
" clip-path="url(#p0cb658ef9e)" style="fill: none; stroke: #b0b0b0; stroke-width: 0.8; stroke-linecap: square"/>
     </g>
     <g id="line2d_10">
      <g>
       <use xlink:href="#mcf658927c7" x="317.331069" y="273.312" style="stroke: #000000; stroke-width: 0.8"/>
      </g>
     </g>
     <g id="text_5">
      <!-- 400 -->
      <g transform="translate(307.787319 287.910437) scale(0.1 -0.1)">
       <defs>
        <path id="DejaVuSans-34" d="M 2419 4116 
L 825 1625 
L 2419 1625 
L 2419 4116 
z
M 2253 4666 
L 3047 4666 
L 3047 1625 
L 3713 1625 
L 3713 1100 
L 3047 1100 
L 3047 0 
L 2419 0 
L 2419 1100 
L 313 1100 
L 313 1709 
L 2253 4666 
z
" transform="scale(0.015625)"/>
       </defs>
       <use xlink:href="#DejaVuSans-34"/>
       <use xlink:href="#DejaVuSans-30" x="63.623047"/>
       <use xlink:href="#DejaVuSans-30" x="127.246094"/>
      </g>
     </g>
    </g>
    <g id="xtick_6">
     <g id="line2d_11">
      <path d="M 380.864248 273.312 
L 380.864248 7.2 
" clip-path="url(#p0cb658ef9e)" style="fill: none; stroke: #b0b0b0; stroke-width: 0.8; stroke-linecap: square"/>
     </g>
     <g id="line2d_12">
      <g>
       <use xlink:href="#mcf658927c7" x="380.864248" y="273.312" style="stroke: #000000; stroke-width: 0.8"/>
      </g>
     </g>
     <g id="text_6">
      <!-- 500 -->
      <g transform="translate(371.320498 287.910437) scale(0.1 -0.1)">
       <defs>
        <path id="DejaVuSans-35" d="M 691 4666 
L 3169 4666 
L 3169 4134 
L 1269 4134 
L 1269 2991 
Q 1406 3038 1543 3061 
Q 1681 3084 1819 3084 
Q 2600 3084 3056 2656 
Q 3513 2228 3513 1497 
Q 3513 744 3044 326 
Q 2575 -91 1722 -91 
Q 1428 -91 1123 -41 
Q 819 9 494 109 
L 494 744 
Q 775 591 1075 516 
Q 1375 441 1709 441 
Q 2250 441 2565 725 
Q 2881 1009 2881 1497 
Q 2881 1984 2565 2268 
Q 2250 2553 1709 2553 
Q 1456 2553 1204 2497 
Q 953 2441 691 2322 
L 691 4666 
z
" transform="scale(0.015625)"/>
       </defs>
       <use xlink:href="#DejaVuSans-35"/>
       <use xlink:href="#DejaVuSans-30" x="63.623047"/>
       <use xlink:href="#DejaVuSans-30" x="127.246094"/>
      </g>
     </g>
    </g>
    <g id="text_7">
     <!-- Episodes -->
     <g transform="translate(203.283438 301.588562) scale(0.1 -0.1)">
      <defs>
       <path id="DejaVuSans-45" d="M 628 4666 
L 3578 4666 
L 3578 4134 
L 1259 4134 
L 1259 2753 
L 3481 2753 
L 3481 2222 
L 1259 2222 
L 1259 531 
L 3634 531 
L 3634 0 
L 628 0 
L 628 4666 
z
" transform="scale(0.015625)"/>
       <path id="DejaVuSans-70" d="M 1159 525 
L 1159 -1331 
L 581 -1331 
L 581 3500 
L 1159 3500 
L 1159 2969 
Q 1341 3281 1617 3432 
Q 1894 3584 2278 3584 
Q 2916 3584 3314 3078 
Q 3713 2572 3713 1747 
Q 3713 922 3314 415 
Q 2916 -91 2278 -91 
Q 1894 -91 1617 61 
Q 1341 213 1159 525 
z
M 3116 1747 
Q 3116 2381 2855 2742 
Q 2594 3103 2138 3103 
Q 1681 3103 1420 2742 
Q 1159 2381 1159 1747 
Q 1159 1113 1420 752 
Q 1681 391 2138 391 
Q 2594 391 2855 752 
Q 3116 1113 3116 1747 
z
" transform="scale(0.015625)"/>
       <path id="DejaVuSans-69" d="M 603 3500 
L 1178 3500 
L 1178 0 
L 603 0 
L 603 3500 
z
M 603 4863 
L 1178 4863 
L 1178 4134 
L 603 4134 
L 603 4863 
z
" transform="scale(0.015625)"/>
       <path id="DejaVuSans-73" d="M 2834 3397 
L 2834 2853 
Q 2591 2978 2328 3040 
Q 2066 3103 1784 3103 
Q 1356 3103 1142 2972 
Q 928 2841 928 2578 
Q 928 2378 1081 2264 
Q 1234 2150 1697 2047 
L 1894 2003 
Q 2506 1872 2764 1633 
Q 3022 1394 3022 966 
Q 3022 478 2636 193 
Q 2250 -91 1575 -91 
Q 1294 -91 989 -36 
Q 684 19 347 128 
L 347 722 
Q 666 556 975 473 
Q 1284 391 1588 391 
Q 1994 391 2212 530 
Q 2431 669 2431 922 
Q 2431 1156 2273 1281 
Q 2116 1406 1581 1522 
L 1381 1569 
Q 847 1681 609 1914 
Q 372 2147 372 2553 
Q 372 3047 722 3315 
Q 1072 3584 1716 3584 
Q 2034 3584 2315 3537 
Q 2597 3491 2834 3397 
z
" transform="scale(0.015625)"/>
       <path id="DejaVuSans-6f" d="M 1959 3097 
Q 1497 3097 1228 2736 
Q 959 2375 959 1747 
Q 959 1119 1226 758 
Q 1494 397 1959 397 
Q 2419 397 2687 759 
Q 2956 1122 2956 1747 
Q 2956 2369 2687 2733 
Q 2419 3097 1959 3097 
z
M 1959 3584 
Q 2709 3584 3137 3096 
Q 3566 2609 3566 1747 
Q 3566 888 3137 398 
Q 2709 -91 1959 -91 
Q 1206 -91 779 398 
Q 353 888 353 1747 
Q 353 2609 779 3096 
Q 1206 3584 1959 3584 
z
" transform="scale(0.015625)"/>
       <path id="DejaVuSans-64" d="M 2906 2969 
L 2906 4863 
L 3481 4863 
L 3481 0 
L 2906 0 
L 2906 525 
Q 2725 213 2448 61 
Q 2172 -91 1784 -91 
Q 1150 -91 751 415 
Q 353 922 353 1747 
Q 353 2572 751 3078 
Q 1150 3584 1784 3584 
Q 2172 3584 2448 3432 
Q 2725 3281 2906 2969 
z
M 947 1747 
Q 947 1113 1208 752 
Q 1469 391 1925 391 
Q 2381 391 2643 752 
Q 2906 1113 2906 1747 
Q 2906 2381 2643 2742 
Q 2381 3103 1925 3103 
Q 1469 3103 1208 2742 
Q 947 2381 947 1747 
z
" transform="scale(0.015625)"/>
       <path id="DejaVuSans-65" d="M 3597 1894 
L 3597 1613 
L 953 1613 
Q 991 1019 1311 708 
Q 1631 397 2203 397 
Q 2534 397 2845 478 
Q 3156 559 3463 722 
L 3463 178 
Q 3153 47 2828 -22 
Q 2503 -91 2169 -91 
Q 1331 -91 842 396 
Q 353 884 353 1716 
Q 353 2575 817 3079 
Q 1281 3584 2069 3584 
Q 2775 3584 3186 3129 
Q 3597 2675 3597 1894 
z
M 3022 2063 
Q 3016 2534 2758 2815 
Q 2500 3097 2075 3097 
Q 1594 3097 1305 2825 
Q 1016 2553 972 2059 
L 3022 2063 
z
" transform="scale(0.015625)"/>
      </defs>
      <use xlink:href="#DejaVuSans-45"/>
      <use xlink:href="#DejaVuSans-70" x="63.183594"/>
      <use xlink:href="#DejaVuSans-69" x="126.660156"/>
      <use xlink:href="#DejaVuSans-73" x="154.443359"/>
      <use xlink:href="#DejaVuSans-6f" x="206.542969"/>
      <use xlink:href="#DejaVuSans-64" x="267.724609"/>
      <use xlink:href="#DejaVuSans-65" x="331.201172"/>
      <use xlink:href="#DejaVuSans-73" x="392.724609"/>
     </g>
    </g>
   </g>
   <g id="matplotlib.axis_2">
    <g id="ytick_1">
     <g id="line2d_13">
      <path d="M 46.965625 254.363254 
L 404.085625 254.363254 
" clip-path="url(#p0cb658ef9e)" style="fill: none; stroke: #b0b0b0; stroke-width: 0.8; stroke-linecap: square"/>
     </g>
     <g id="line2d_14">
      <defs>
       <path id="m32b44249e1" d="M 0 0 
L -3.5 0 
" style="stroke: #000000; stroke-width: 0.8"/>
      </defs>
      <g>
       <use xlink:href="#m32b44249e1" x="46.965625" y="254.363254" style="stroke: #000000; stroke-width: 0.8"/>
      </g>
     </g>
     <g id="text_8">
      <!-- 0 -->
      <g transform="translate(33.603125 258.162472) scale(0.1 -0.1)">
       <use xlink:href="#DejaVuSans-30"/>
      </g>
     </g>
    </g>
    <g id="ytick_2">
     <g id="line2d_15">
      <path d="M 46.965625 214.149188 
L 404.085625 214.149188 
" clip-path="url(#p0cb658ef9e)" style="fill: none; stroke: #b0b0b0; stroke-width: 0.8; stroke-linecap: square"/>
     </g>
     <g id="line2d_16">
      <g>
       <use xlink:href="#m32b44249e1" x="46.965625" y="214.149188" style="stroke: #000000; stroke-width: 0.8"/>
      </g>
     </g>
     <g id="text_9">
      <!-- 100 -->
      <g transform="translate(20.878125 217.948407) scale(0.1 -0.1)">
       <use xlink:href="#DejaVuSans-31"/>
       <use xlink:href="#DejaVuSans-30" x="63.623047"/>
       <use xlink:href="#DejaVuSans-30" x="127.246094"/>
      </g>
     </g>
    </g>
    <g id="ytick_3">
     <g id="line2d_17">
      <path d="M 46.965625 173.935123 
L 404.085625 173.935123 
" clip-path="url(#p0cb658ef9e)" style="fill: none; stroke: #b0b0b0; stroke-width: 0.8; stroke-linecap: square"/>
     </g>
     <g id="line2d_18">
      <g>
       <use xlink:href="#m32b44249e1" x="46.965625" y="173.935123" style="stroke: #000000; stroke-width: 0.8"/>
      </g>
     </g>
     <g id="text_10">
      <!-- 200 -->
      <g transform="translate(20.878125 177.734342) scale(0.1 -0.1)">
       <use xlink:href="#DejaVuSans-32"/>
       <use xlink:href="#DejaVuSans-30" x="63.623047"/>
       <use xlink:href="#DejaVuSans-30" x="127.246094"/>
      </g>
     </g>
    </g>
    <g id="ytick_4">
     <g id="line2d_19">
      <path d="M 46.965625 133.721058 
L 404.085625 133.721058 
" clip-path="url(#p0cb658ef9e)" style="fill: none; stroke: #b0b0b0; stroke-width: 0.8; stroke-linecap: square"/>
     </g>
     <g id="line2d_20">
      <g>
       <use xlink:href="#m32b44249e1" x="46.965625" y="133.721058" style="stroke: #000000; stroke-width: 0.8"/>
      </g>
     </g>
     <g id="text_11">
      <!-- 300 -->
      <g transform="translate(20.878125 137.520277) scale(0.1 -0.1)">
       <use xlink:href="#DejaVuSans-33"/>
       <use xlink:href="#DejaVuSans-30" x="63.623047"/>
       <use xlink:href="#DejaVuSans-30" x="127.246094"/>
      </g>
     </g>
    </g>
    <g id="ytick_5">
     <g id="line2d_21">
      <path d="M 46.965625 93.506993 
L 404.085625 93.506993 
" clip-path="url(#p0cb658ef9e)" style="fill: none; stroke: #b0b0b0; stroke-width: 0.8; stroke-linecap: square"/>
     </g>
     <g id="line2d_22">
      <g>
       <use xlink:href="#m32b44249e1" x="46.965625" y="93.506993" style="stroke: #000000; stroke-width: 0.8"/>
      </g>
     </g>
     <g id="text_12">
      <!-- 400 -->
      <g transform="translate(20.878125 97.306212) scale(0.1 -0.1)">
       <use xlink:href="#DejaVuSans-34"/>
       <use xlink:href="#DejaVuSans-30" x="63.623047"/>
       <use xlink:href="#DejaVuSans-30" x="127.246094"/>
      </g>
     </g>
    </g>
    <g id="ytick_6">
     <g id="line2d_23">
      <path d="M 46.965625 53.292928 
L 404.085625 53.292928 
" clip-path="url(#p0cb658ef9e)" style="fill: none; stroke: #b0b0b0; stroke-width: 0.8; stroke-linecap: square"/>
     </g>
     <g id="line2d_24">
      <g>
       <use xlink:href="#m32b44249e1" x="46.965625" y="53.292928" style="stroke: #000000; stroke-width: 0.8"/>
      </g>
     </g>
     <g id="text_13">
      <!-- 500 -->
      <g transform="translate(20.878125 57.092147) scale(0.1 -0.1)">
       <use xlink:href="#DejaVuSans-35"/>
       <use xlink:href="#DejaVuSans-30" x="63.623047"/>
       <use xlink:href="#DejaVuSans-30" x="127.246094"/>
      </g>
     </g>
    </g>
    <g id="ytick_7">
     <g id="line2d_25">
      <path d="M 46.965625 13.078863 
L 404.085625 13.078863 
" clip-path="url(#p0cb658ef9e)" style="fill: none; stroke: #b0b0b0; stroke-width: 0.8; stroke-linecap: square"/>
     </g>
     <g id="line2d_26">
      <g>
       <use xlink:href="#m32b44249e1" x="46.965625" y="13.078863" style="stroke: #000000; stroke-width: 0.8"/>
      </g>
     </g>
     <g id="text_14">
      <!-- 600 -->
      <g transform="translate(20.878125 16.878082) scale(0.1 -0.1)">
       <defs>
        <path id="DejaVuSans-36" d="M 2113 2584 
Q 1688 2584 1439 2293 
Q 1191 2003 1191 1497 
Q 1191 994 1439 701 
Q 1688 409 2113 409 
Q 2538 409 2786 701 
Q 3034 994 3034 1497 
Q 3034 2003 2786 2293 
Q 2538 2584 2113 2584 
z
M 3366 4563 
L 3366 3988 
Q 3128 4100 2886 4159 
Q 2644 4219 2406 4219 
Q 1781 4219 1451 3797 
Q 1122 3375 1075 2522 
Q 1259 2794 1537 2939 
Q 1816 3084 2150 3084 
Q 2853 3084 3261 2657 
Q 3669 2231 3669 1497 
Q 3669 778 3244 343 
Q 2819 -91 2113 -91 
Q 1303 -91 875 529 
Q 447 1150 447 2328 
Q 447 3434 972 4092 
Q 1497 4750 2381 4750 
Q 2619 4750 2861 4703 
Q 3103 4656 3366 4563 
z
" transform="scale(0.015625)"/>
       </defs>
       <use xlink:href="#DejaVuSans-36"/>
       <use xlink:href="#DejaVuSans-30" x="63.623047"/>
       <use xlink:href="#DejaVuSans-30" x="127.246094"/>
      </g>
     </g>
    </g>
    <g id="text_15">
     <!-- EWMA(0.05) Rewards -->
     <g transform="translate(14.798438 193.942719) rotate(-90) scale(0.1 -0.1)">
      <defs>
       <path id="DejaVuSans-57" d="M 213 4666 
L 850 4666 
L 1831 722 
L 2809 4666 
L 3519 4666 
L 4500 722 
L 5478 4666 
L 6119 4666 
L 4947 0 
L 4153 0 
L 3169 4050 
L 2175 0 
L 1381 0 
L 213 4666 
z
" transform="scale(0.015625)"/>
       <path id="DejaVuSans-4d" d="M 628 4666 
L 1569 4666 
L 2759 1491 
L 3956 4666 
L 4897 4666 
L 4897 0 
L 4281 0 
L 4281 4097 
L 3078 897 
L 2444 897 
L 1241 4097 
L 1241 0 
L 628 0 
L 628 4666 
z
" transform="scale(0.015625)"/>
       <path id="DejaVuSans-41" d="M 2188 4044 
L 1331 1722 
L 3047 1722 
L 2188 4044 
z
M 1831 4666 
L 2547 4666 
L 4325 0 
L 3669 0 
L 3244 1197 
L 1141 1197 
L 716 0 
L 50 0 
L 1831 4666 
z
" transform="scale(0.015625)"/>
       <path id="DejaVuSans-28" d="M 1984 4856 
Q 1566 4138 1362 3434 
Q 1159 2731 1159 2009 
Q 1159 1288 1364 580 
Q 1569 -128 1984 -844 
L 1484 -844 
Q 1016 -109 783 600 
Q 550 1309 550 2009 
Q 550 2706 781 3412 
Q 1013 4119 1484 4856 
L 1984 4856 
z
" transform="scale(0.015625)"/>
       <path id="DejaVuSans-2e" d="M 684 794 
L 1344 794 
L 1344 0 
L 684 0 
L 684 794 
z
" transform="scale(0.015625)"/>
       <path id="DejaVuSans-29" d="M 513 4856 
L 1013 4856 
Q 1481 4119 1714 3412 
Q 1947 2706 1947 2009 
Q 1947 1309 1714 600 
Q 1481 -109 1013 -844 
L 513 -844 
Q 928 -128 1133 580 
Q 1338 1288 1338 2009 
Q 1338 2731 1133 3434 
Q 928 4138 513 4856 
z
" transform="scale(0.015625)"/>
       <path id="DejaVuSans-20" transform="scale(0.015625)"/>
       <path id="DejaVuSans-52" d="M 2841 2188 
Q 3044 2119 3236 1894 
Q 3428 1669 3622 1275 
L 4263 0 
L 3584 0 
L 2988 1197 
Q 2756 1666 2539 1819 
Q 2322 1972 1947 1972 
L 1259 1972 
L 1259 0 
L 628 0 
L 628 4666 
L 2053 4666 
Q 2853 4666 3247 4331 
Q 3641 3997 3641 3322 
Q 3641 2881 3436 2590 
Q 3231 2300 2841 2188 
z
M 1259 4147 
L 1259 2491 
L 2053 2491 
Q 2509 2491 2742 2702 
Q 2975 2913 2975 3322 
Q 2975 3731 2742 3939 
Q 2509 4147 2053 4147 
L 1259 4147 
z
" transform="scale(0.015625)"/>
       <path id="DejaVuSans-77" d="M 269 3500 
L 844 3500 
L 1563 769 
L 2278 3500 
L 2956 3500 
L 3675 769 
L 4391 3500 
L 4966 3500 
L 4050 0 
L 3372 0 
L 2619 2869 
L 1863 0 
L 1184 0 
L 269 3500 
z
" transform="scale(0.015625)"/>
       <path id="DejaVuSans-61" d="M 2194 1759 
Q 1497 1759 1228 1600 
Q 959 1441 959 1056 
Q 959 750 1161 570 
Q 1363 391 1709 391 
Q 2188 391 2477 730 
Q 2766 1069 2766 1631 
L 2766 1759 
L 2194 1759 
z
M 3341 1997 
L 3341 0 
L 2766 0 
L 2766 531 
Q 2569 213 2275 61 
Q 1981 -91 1556 -91 
Q 1019 -91 701 211 
Q 384 513 384 1019 
Q 384 1609 779 1909 
Q 1175 2209 1959 2209 
L 2766 2209 
L 2766 2266 
Q 2766 2663 2505 2880 
Q 2244 3097 1772 3097 
Q 1472 3097 1187 3025 
Q 903 2953 641 2809 
L 641 3341 
Q 956 3463 1253 3523 
Q 1550 3584 1831 3584 
Q 2591 3584 2966 3190 
Q 3341 2797 3341 1997 
z
" transform="scale(0.015625)"/>
       <path id="DejaVuSans-72" d="M 2631 2963 
Q 2534 3019 2420 3045 
Q 2306 3072 2169 3072 
Q 1681 3072 1420 2755 
Q 1159 2438 1159 1844 
L 1159 0 
L 581 0 
L 581 3500 
L 1159 3500 
L 1159 2956 
Q 1341 3275 1631 3429 
Q 1922 3584 2338 3584 
Q 2397 3584 2469 3576 
Q 2541 3569 2628 3553 
L 2631 2963 
z
" transform="scale(0.015625)"/>
      </defs>
      <use xlink:href="#DejaVuSans-45"/>
      <use xlink:href="#DejaVuSans-57" x="63.183594"/>
      <use xlink:href="#DejaVuSans-4d" x="162.060547"/>
      <use xlink:href="#DejaVuSans-41" x="248.339844"/>
      <use xlink:href="#DejaVuSans-28" x="316.748047"/>
      <use xlink:href="#DejaVuSans-30" x="355.761719"/>
      <use xlink:href="#DejaVuSans-2e" x="419.384766"/>
      <use xlink:href="#DejaVuSans-30" x="451.171875"/>
      <use xlink:href="#DejaVuSans-35" x="514.794922"/>
      <use xlink:href="#DejaVuSans-29" x="578.417969"/>
      <use xlink:href="#DejaVuSans-20" x="617.431641"/>
      <use xlink:href="#DejaVuSans-52" x="649.21875"/>
      <use xlink:href="#DejaVuSans-65" x="714.201172"/>
      <use xlink:href="#DejaVuSans-77" x="775.724609"/>
      <use xlink:href="#DejaVuSans-61" x="857.511719"/>
      <use xlink:href="#DejaVuSans-72" x="918.791016"/>
      <use xlink:href="#DejaVuSans-64" x="958.154297"/>
      <use xlink:href="#DejaVuSans-73" x="1021.630859"/>
     </g>
    </g>
   </g>
   <g id="line2d_27">
    <path d="M 63.198352 249.537566 
L 63.833684 249.537566 
L 64.469016 248.268761 
L 65.104348 246.551218 
L 65.739679 247.211275 
L 66.375011 247.194939 
L 67.010343 247.449916 
L 67.645675 247.521086 
L 68.281007 247.086827 
L 68.916338 247.342096 
L 69.55167 247.27026 
L 70.187002 247.60439 
L 72.728329 248.140463 
L 74.634325 248.368372 
L 75.269656 247.456521 
L 75.904988 247.61431 
L 76.54032 247.161992 
L 77.175652 247.420566 
L 77.810983 247.14408 
L 78.446315 246.447102 
L 79.081647 246.520407 
L 80.352311 246.982879 
L 82.258306 247.276269 
L 82.893638 247.316747 
L 83.52897 247.526756 
L 84.799633 247.505068 
L 85.434965 246.670778 
L 86.705629 246.541855 
L 87.34096 244.389819 
L 87.976292 243.139332 
L 88.611624 243.114378 
L 89.246956 243.477673 
L 90.517619 243.548072 
L 91.152951 242.853561 
L 91.788283 241.535071 
L 92.423615 239.058838 
L 93.058946 235.960766 
L 93.694278 234.139577 
L 94.32961 233.143871 
L 94.964942 231.425071 
L 95.600274 228.163204 
L 101.31826 191.135898 
L 101.953592 191.287514 
L 103.224255 182.26278 
L 103.859587 179.725124 
L 104.494919 178.655439 
L 105.765582 175.52793 
L 106.400914 174.658993 
L 107.036246 172.905549 
L 107.671578 171.740175 
L 108.942241 168.665344 
L 109.577573 166.754558 
L 110.212905 165.683228 
L 110.848237 160.973569 
L 111.483568 160.814297 
L 112.1189 159.680165 
L 112.754232 157.643049 
L 113.389564 156.774424 
L 114.024896 154.398158 
L 114.660227 152.838378 
L 115.295559 152.235908 
L 115.930891 151.297543 
L 116.566223 150.590648 
L 118.472218 149.698306 
L 119.10755 148.891041 
L 119.742882 147.637578 
L 120.378214 147.219321 
L 121.013545 147.268702 
L 121.648877 147.112781 
L 122.284209 146.822893 
L 122.919541 146.912447 
L 123.554872 147.726609 
L 124.190204 147.892077 
L 124.825536 147.725322 
L 125.460868 148.174006 
L 126.0962 146.678436 
L 126.731531 144.469904 
L 128.002195 136.900964 
L 128.637527 136.882629 
L 129.272859 134.744265 
L 129.90819 135.318924 
L 130.543522 135.380032 
L 131.178854 135.599551 
L 132.449518 128.461205 
L 133.084849 124.690092 
L 133.720181 122.762845 
L 135.626177 112.827446 
L 136.89684 107.008425 
L 137.532172 108.73014 
L 140.708831 136.115837 
L 142.614826 151.374705 
L 143.250158 153.068233 
L 143.88549 157.193762 
L 145.791485 142.356994 
L 148.968144 122.550804 
L 150.874139 112.664982 
L 152.780135 104.191224 
L 154.68613 96.927578 
L 156.592126 90.701043 
L 158.498121 85.363401 
L 160.404116 80.787652 
L 162.310112 76.864969 
L 163.580775 74.566035 
L 164.216107 73.602652 
L 165.486771 84.382014 
L 167.392766 99.166842 
L 169.934093 117.85797 
L 171.840089 130.033748 
L 173.110752 137.156203 
L 175.016748 145.96994 
L 176.922743 153.213305 
L 177.558075 155.315264 
L 178.828738 158.461044 
L 179.46407 159.998938 
L 180.099402 160.997428 
L 181.370065 163.728864 
L 182.005397 164.84246 
L 182.640729 166.262318 
L 183.911393 168.203877 
L 184.546724 169.093698 
L 185.182056 170.361291 
L 186.45272 171.946394 
L 187.723383 173.862541 
L 190.264711 176.822444 
L 191.535374 178.092226 
L 194.076701 179.435633 
L 194.712033 179.884471 
L 195.982697 180.361045 
L 197.25336 180.481496 
L 197.888692 179.85256 
L 199.794687 177.056451 
L 201.065351 175.453185 
L 201.700683 174.371916 
L 203.606678 170.000129 
L 204.24201 167.582939 
L 204.877342 164.361677 
L 206.783337 148.520358 
L 207.418669 147.679851 
L 208.054001 151.888061 
L 208.689333 153.372458 
L 209.324664 158.160641 
L 209.959996 161.462767 
L 210.595328 165.866535 
L 211.865991 170.82345 
L 212.501323 172.426749 
L 213.136655 174.372132 
L 214.407319 179.008452 
L 215.04265 181.08721 
L 215.677982 181.855603 
L 216.313314 183.731682 
L 216.948646 186.579632 
L 217.583978 186.53051 
L 218.219309 187.428879 
L 218.854641 188.06115 
L 219.489973 188.219452 
L 220.125305 188.510588 
L 220.760637 188.666524 
L 221.395968 188.513058 
L 222.0313 187.864588 
L 222.666632 187.590361 
L 223.301964 187.691774 
L 223.937296 186.843083 
L 224.572627 185.33308 
L 225.207959 184.461575 
L 225.843291 182.346793 
L 226.478623 182.690277 
L 227.113954 182.674767 
L 227.749286 182.19757 
L 228.384618 182.246909 
L 229.655282 182.590654 
L 230.290613 182.258413 
L 231.561277 181.13121 
L 232.196609 180.892048 
L 232.831941 180.865914 
L 233.467272 180.619909 
L 234.102604 180.748132 
L 234.737936 179.341808 
L 235.373268 178.588904 
L 236.0086 178.496964 
L 236.643931 178.208551 
L 237.279263 177.431882 
L 237.914595 175.929979 
L 238.549927 175.428095 
L 239.185259 175.212697 
L 239.82059 174.304322 
L 240.455922 174.064685 
L 241.091254 174.198956 
L 241.726586 172.376131 
L 242.361917 172.031832 
L 242.997249 171.403144 
L 243.632581 171.328672 
L 244.267913 171.056854 
L 244.903245 171.039911 
L 246.173908 170.33896 
L 246.80924 169.975878 
L 247.444572 169.309238 
L 248.079904 168.434645 
L 248.715235 167.261962 
L 249.985899 166.792634 
L 250.621231 166.164513 
L 251.256563 165.889512 
L 251.891894 165.105477 
L 252.527226 164.521501 
L 253.162558 164.489506 
L 253.79789 163.071726 
L 254.433222 162.870935 
L 255.068553 162.881255 
L 255.703885 162.468811 
L 256.339217 161.735169 
L 256.974549 161.299601 
L 257.60988 160.724955 
L 258.245212 160.782253 
L 259.515876 158.786206 
L 260.151208 158.578514 
L 262.057203 157.020498 
L 262.692535 156.880984 
L 263.327867 156.547376 
L 263.963198 155.94895 
L 265.233862 155.134934 
L 265.869194 154.446274 
L 266.504526 153.550762 
L 267.139857 153.202702 
L 267.775189 152.691082 
L 269.045853 150.916906 
L 270.316516 148.764779 
L 272.222512 144.561666 
L 273.493175 138.823789 
L 276.669834 119.917265 
L 277.305166 120.084671 
L 278.57583 126.562625 
L 279.211161 129.554568 
L 280.481825 133.877651 
L 281.117157 135.297421 
L 281.752489 136.083205 
L 283.023152 139.141401 
L 283.658484 140.056699 
L 284.293816 141.20773 
L 284.929148 141.114895 
L 285.564479 141.348414 
L 286.199811 141.107795 
L 286.835143 141.100385 
L 287.470475 140.630884 
L 288.105806 139.983787 
L 288.741138 138.464229 
L 289.37647 136.457651 
L 291.917797 121.220747 
L 293.823793 111.532541 
L 295.729788 103.226117 
L 297.635783 96.104395 
L 299.541779 89.99841 
L 301.447774 84.763291 
L 302.083106 83.189772 
L 302.718438 89.677422 
L 304.624433 84.488084 
L 305.259765 82.928326 
L 305.895097 87.740057 
L 308.436424 100.634007 
L 311.613083 111.982351 
L 312.248415 112.888323 
L 312.883746 113.527819 
L 314.789742 104.936818 
L 316.695737 97.571108 
L 318.601732 91.255933 
L 320.507728 85.841459 
L 321.14306 84.214033 
L 321.778391 84.960179 
L 322.413723 84.422382 
L 323.049055 82.86591 
L 323.684387 82.593682 
L 324.319719 86.798828 
L 324.95505 88.039053 
L 326.225714 89.687112 
L 328.131709 84.496391 
L 330.037705 80.045997 
L 331.9437 76.230341 
L 333.849695 72.958892 
L 335.755691 70.154034 
L 337.026354 86.168072 
L 338.93235 81.479255 
L 340.838345 77.45918 
L 342.744341 74.012468 
L 344.650336 71.057344 
L 345.920999 69.325313 
L 346.556331 78.335926 
L 348.462327 74.764168 
L 349.097658 73.690606 
L 351.638986 93.232731 
L 352.909649 101.56066 
L 353.544981 104.11371 
L 355.450976 113.787224 
L 356.086308 115.346912 
L 356.72164 117.55247 
L 357.356972 119.285823 
L 357.992304 119.444587 
L 358.627635 119.21338 
L 359.262967 123.01514 
L 359.898299 123.791721 
L 360.533631 120.266781 
L 361.168962 118.687507 
L 363.074958 109.360605 
L 364.980953 101.363953 
L 366.886949 94.507823 
L 368.792944 88.629549 
L 370.698939 83.589663 
L 371.969603 80.635731 
L 372.604935 89.080823 
L 373.240267 87.291428 
L 373.875598 92.649072 
L 375.781594 87.035902 
L 376.416925 90.094013 
L 377.052257 94.728423 
L 377.687589 98.286617 
L 379.593584 105.536897 
L 380.228916 107.368352 
L 380.864248 107.218174 
L 381.49958 106.09026 
L 385.946902 90.414543 
L 386.582234 98.290266 
L 387.852898 93.903026 
L 387.852898 93.903026 
" clip-path="url(#p0cb658ef9e)" style="fill: none; stroke: #1f77b4; stroke-width: 1.5; stroke-linecap: square"/>
   </g>
   <g id="line2d_28">
    <path d="M 63.198352 231.843377 
L 63.833684 238.442608 
L 64.469016 238.102814 
L 65.104348 238.36673 
L 65.739679 239.680281 
L 66.375011 230.76272 
L 67.010343 233.208073 
L 67.645675 233.184561 
L 68.281007 232.731298 
L 68.916338 232.470329 
L 69.55167 230.532414 
L 70.187002 229.581392 
L 70.822334 229.855108 
L 72.092997 231.718592 
L 72.728329 230.185454 
L 73.363661 229.947808 
L 73.998993 229.938258 
L 74.634325 231.06003 
L 75.269656 229.585273 
L 75.904988 229.969925 
L 77.175652 231.33676 
L 77.810983 230.974947 
L 78.446315 229.476806 
L 79.081647 229.801283 
L 80.352311 231.323536 
L 80.987642 230.551861 
L 81.622974 230.224449 
L 82.258306 230.250357 
L 82.893638 220.423915 
L 83.52897 221.665777 
L 84.164301 221.429626 
L 84.799633 219.112404 
L 85.434965 218.67451 
L 86.070297 218.928699 
L 86.705629 220.314681 
L 87.34096 221.14406 
L 88.611624 223.940118 
L 89.882288 225.950632 
L 91.788283 228.848651 
L 92.423615 228.968971 
L 94.964942 222.656103 
L 95.600274 221.831688 
L 96.235605 221.571123 
L 96.870937 218.107657 
L 97.506269 209.345218 
L 98.141601 210.13263 
L 98.776933 211.322307 
L 99.412264 210.517765 
L 100.047596 209.335022 
L 100.682928 208.470217 
L 101.31826 208.535861 
L 101.953592 209.542 
L 102.588923 209.71903 
L 103.224255 210.993722 
L 103.859587 210.782022 
L 104.494919 209.686759 
L 105.130251 211.018395 
L 105.765582 202.88349 
L 107.036246 204.582715 
L 107.671578 204.082801 
L 108.306909 200.846064 
L 108.942241 201.36258 
L 109.577573 200.844162 
L 110.212905 201.380103 
L 110.848237 200.574626 
L 111.483568 197.637838 
L 112.1189 197.393257 
L 113.389564 200.485523 
L 114.024896 200.750618 
L 114.660227 201.165336 
L 115.295559 200.538916 
L 119.10755 161.813748 
L 119.742882 156.333517 
L 120.378214 157.607599 
L 121.013545 159.547172 
L 121.648877 159.583236 
L 122.284209 162.374226 
L 122.919541 160.646853 
L 123.554872 160.951555 
L 124.190204 158.446739 
L 124.825536 160.359701 
L 125.460868 159.464545 
L 126.0962 159.484446 
L 126.731531 161.788286 
L 127.366863 164.925772 
L 128.002195 165.560424 
L 128.637527 167.718772 
L 129.272859 168.616808 
L 129.90819 169.711878 
L 130.543522 170.166203 
L 131.178854 172.555701 
L 131.814186 172.867118 
L 133.084849 175.352248 
L 133.720181 176.3906 
L 134.355513 179.010345 
L 134.990845 179.885103 
L 135.626177 181.623182 
L 136.261508 181.378892 
L 136.89684 182.376451 
L 137.532172 182.537868 
L 138.167504 184.988512 
L 138.802835 182.963731 
L 139.438167 182.410651 
L 140.073499 183.4164 
L 140.708831 183.263771 
L 141.344163 184.005042 
L 141.979494 183.037495 
L 142.614826 181.655297 
L 143.250158 180.624335 
L 143.88549 177.873157 
L 144.520822 180.595416 
L 145.156153 182.476566 
L 146.426817 184.156064 
L 147.062149 185.415809 
L 147.697481 186.290386 
L 148.332812 186.658229 
L 149.603476 187.084978 
L 150.238808 187.654494 
L 150.874139 186.022188 
L 151.509471 184.793582 
L 152.144803 185.31671 
L 154.68613 189.212311 
L 155.321462 189.816067 
L 156.592126 189.991942 
L 157.227457 189.249066 
L 157.862789 188.704298 
L 158.498121 186.054524 
L 159.133453 188.505831 
L 159.768785 190.331602 
L 160.404116 191.201091 
L 161.039448 191.242624 
L 162.310112 192.356407 
L 162.945444 192.279815 
L 163.580775 191.925475 
L 164.216107 192.172126 
L 164.851439 192.024305 
L 165.486771 192.648134 
L 166.122102 192.556957 
L 166.757434 192.289338 
L 167.392766 191.190432 
L 168.028098 189.603495 
L 168.66343 190.75057 
L 169.298761 190.171085 
L 169.934093 190.123346 
L 170.569425 189.374133 
L 171.204757 191.377264 
L 172.47542 191.852303 
L 173.110752 191.921591 
L 173.746084 192.188509 
L 174.381416 191.979561 
L 175.016748 192.283795 
L 175.652079 193.377183 
L 176.287411 192.384871 
L 176.922743 193.855265 
L 177.558075 195.795064 
L 178.828738 195.685473 
L 180.099402 194.878748 
L 180.734734 193.590189 
L 181.370065 193.793765 
L 182.005397 192.881202 
L 183.276061 192.859676 
L 183.911393 192.999236 
L 184.546724 192.709547 
L 185.182056 192.233264 
L 185.817388 190.594426 
L 186.45272 192.697183 
L 187.088052 191.135694 
L 187.723383 193.352132 
L 188.358715 192.783401 
L 188.994047 194.193562 
L 189.629379 196.277196 
L 190.264711 197.874595 
L 190.900042 199.81438 
L 191.535374 199.445329 
L 192.170706 198.008922 
L 192.806038 197.348104 
L 193.44137 198.690868 
L 194.712033 198.982591 
L 196.618028 199.764239 
L 197.25336 199.799848 
L 197.888692 199.994535 
L 199.159356 199.862563 
L 201.700683 197.590424 
L 202.336015 197.232043 
L 202.971346 196.207934 
L 203.606678 195.596962 
L 206.148005 192.154381 
L 207.418669 188.969479 
L 208.054001 187.493897 
L 208.689333 189.711387 
L 209.324664 188.118281 
L 209.959996 189.158442 
L 210.595328 188.517914 
L 211.865991 186.781407 
L 213.771987 182.396345 
L 214.407319 180.907604 
L 215.04265 183.313654 
L 215.677982 183.30719 
L 216.313314 184.326511 
L 216.948646 184.591117 
L 217.583978 185.284849 
L 218.219309 185.682501 
L 218.854641 185.919521 
L 219.489973 185.521371 
L 220.125305 185.605591 
L 220.760637 185.424207 
L 221.395968 184.749216 
L 222.666632 181.039699 
L 223.301964 178.89494 
L 223.937296 181.120119 
L 224.572627 180.258191 
L 225.207959 179.177969 
L 225.843291 177.588759 
L 226.478623 179.758604 
L 227.749286 185.313415 
L 228.384618 187.338311 
L 229.01995 185.964403 
L 229.655282 187.192681 
L 230.290613 186.610231 
L 231.561277 183.563766 
L 233.467272 178.196867 
L 234.737936 173.141644 
L 235.373268 175.956091 
L 236.0086 174.930118 
L 237.279263 173.67494 
L 237.914595 172.602169 
L 238.549927 171.824321 
L 239.82059 168.657167 
L 241.091254 163.302522 
L 241.726586 160.134457 
L 242.361917 162.071127 
L 242.997249 161.839938 
L 244.267913 167.80369 
L 244.903245 165.315383 
L 245.538576 165.424658 
L 246.173908 165.24697 
L 246.80924 163.851637 
L 247.444572 161.721789 
L 248.079904 160.804321 
L 248.715235 161.883109 
L 249.350567 160.897254 
L 250.621231 158.367211 
L 251.256563 155.626876 
L 251.891894 158.673634 
L 252.527226 161.1257 
L 253.162558 160.137501 
L 253.79789 162.838086 
L 254.433222 162.528336 
L 255.068553 161.067864 
L 255.703885 163.822466 
L 256.339217 164.066708 
L 257.60988 161.615709 
L 258.245212 161.166007 
L 258.880544 160.437185 
L 259.515876 159.483412 
L 260.786539 153.037641 
L 262.692535 138.81155 
L 263.327867 134.535618 
L 263.963198 138.677153 
L 264.59853 143.596856 
L 266.504526 151.631589 
L 267.139857 146.714656 
L 267.775189 143.39074 
L 269.045853 146.725718 
L 269.681185 145.009812 
L 271.58718 131.928691 
L 272.857843 124.261704 
L 273.493175 124.935742 
L 274.128507 126.118968 
L 274.763839 122.477666 
L 275.399171 121.813306 
L 277.305166 112.040587 
L 279.211161 103.661702 
L 279.846493 102.148615 
L 280.481825 101.495356 
L 281.117157 102.221932 
L 283.023152 95.243433 
L 284.293816 91.153259 
L 285.564479 103.537449 
L 287.470475 96.371324 
L 289.37647 90.227268 
L 290.011802 92.904633 
L 291.282465 89.042492 
L 291.917797 91.236206 
L 292.553129 94.426122 
L 293.188461 92.79171 
L 293.823793 96.768452 
L 294.459124 99.118758 
L 296.36512 109.21609 
L 297.000452 112.994932 
L 297.635783 114.212202 
L 298.271115 115.127323 
L 298.906447 114.750053 
L 300.177111 120.396939 
L 300.812442 117.041739 
L 301.447774 119.80598 
L 302.718438 121.160689 
L 303.353769 122.552775 
L 303.989101 125.825638 
L 305.895097 115.480661 
L 307.801092 106.611135 
L 309.071756 101.41261 
L 309.707087 105.199592 
L 310.342419 102.604259 
L 310.977751 108.603753 
L 312.248415 103.210948 
L 312.883746 105.721698 
L 313.519078 103.100259 
L 314.15441 108.210351 
L 315.425073 102.855902 
L 316.060405 106.97286 
L 317.331069 101.739067 
L 317.966401 107.138396 
L 319.872396 99.458686 
L 321.14306 94.957524 
L 321.778391 100.856786 
L 323.684387 94.072991 
L 324.319719 92.033988 
L 324.95505 97.335467 
L 325.590382 101.0247 
L 326.225714 106.017393 
L 326.861046 109.252423 
L 328.767041 116.736775 
L 329.402373 118.249522 
L 330.037705 115.846187 
L 331.9437 106.924529 
L 332.579032 111.883621 
L 333.214364 108.954086 
L 333.849695 110.453826 
L 335.120359 104.880639 
L 335.755691 107.06662 
L 336.391023 110.631223 
L 338.297018 102.453348 
L 338.93235 104.318339 
L 339.567682 108.201319 
L 341.473677 100.37001 
L 343.379672 93.655641 
L 344.015004 91.637505 
L 344.650336 97.76309 
L 345.285668 95.539582 
L 345.920999 100.122891 
L 347.826995 93.443767 
L 349.097658 89.52906 
L 349.73299 94.473217 
L 351.003654 90.458139 
L 351.638986 96.622584 
L 352.274317 100.649067 
L 353.544981 96.031844 
L 354.180313 100.952466 
L 354.815645 98.56949 
L 356.086308 110.269806 
L 356.72164 107.420962 
L 357.356972 112.03352 
L 359.262967 103.655643 
L 361.168962 96.472661 
L 361.804294 98.013368 
L 363.71029 91.635116 
L 364.345621 89.718006 
L 364.980953 89.163495 
L 365.616285 87.369967 
L 366.251617 88.320243 
L 368.157612 83.324473 
L 368.792944 81.822895 
L 369.428276 88.499531 
L 370.698939 85.066887 
L 371.334271 89.550513 
L 373.240267 84.379275 
L 373.875598 86.765936 
L 375.781594 81.991848 
L 376.416925 80.556902 
L 377.052257 84.723138 
L 377.687589 91.697116 
L 378.958253 87.952708 
L 379.593584 94.383174 
L 381.49958 88.522678 
L 382.134912 94.844217 
L 382.770243 92.766653 
L 383.405575 98.132033 
L 384.040907 95.890078 
L 384.676239 98.967942 
L 385.946902 94.514628 
L 387.217566 103.982305 
L 387.852898 101.447836 
L 387.852898 101.447836 
" clip-path="url(#p0cb658ef9e)" style="fill: none; stroke: #ff7f0e; stroke-width: 1.5; stroke-linecap: square"/>
   </g>
   <g id="patch_3">
    <path d="M 46.965625 273.312 
L 46.965625 7.2 
" style="fill: none; stroke: #000000; stroke-width: 0.8; stroke-linejoin: miter; stroke-linecap: square"/>
   </g>
   <g id="patch_4">
    <path d="M 404.085625 273.312 
L 404.085625 7.2 
" style="fill: none; stroke: #000000; stroke-width: 0.8; stroke-linejoin: miter; stroke-linecap: square"/>
   </g>
   <g id="patch_5">
    <path d="M 46.965625 273.312 
L 404.085625 273.312 
" style="fill: none; stroke: #000000; stroke-width: 0.8; stroke-linejoin: miter; stroke-linecap: square"/>
   </g>
   <g id="patch_6">
    <path d="M 46.965625 7.2 
L 404.085625 7.2 
" style="fill: none; stroke: #000000; stroke-width: 0.8; stroke-linejoin: miter; stroke-linecap: square"/>
   </g>
   <g id="legend_1">
    <g id="patch_7">
     <path d="M 342.0325 44.55625 
L 397.085625 44.55625 
Q 399.085625 44.55625 399.085625 42.55625 
L 399.085625 14.2 
Q 399.085625 12.2 397.085625 12.2 
L 342.0325 12.2 
Q 340.0325 12.2 340.0325 14.2 
L 340.0325 42.55625 
Q 340.0325 44.55625 342.0325 44.55625 
z
" style="fill: #ffffff; opacity: 0.8; stroke: #cccccc; stroke-linejoin: miter"/>
    </g>
    <g id="line2d_29">
     <path d="M 344.0325 20.298437 
L 354.0325 20.298437 
L 364.0325 20.298437 
" style="fill: none; stroke: #1f77b4; stroke-width: 1.5; stroke-linecap: square"/>
    </g>
    <g id="text_16">
     <!-- DQN -->
     <g transform="translate(372.0325 23.798437) scale(0.1 -0.1)">
      <defs>
       <path id="DejaVuSans-44" d="M 1259 4147 
L 1259 519 
L 2022 519 
Q 2988 519 3436 956 
Q 3884 1394 3884 2338 
Q 3884 3275 3436 3711 
Q 2988 4147 2022 4147 
L 1259 4147 
z
M 628 4666 
L 1925 4666 
Q 3281 4666 3915 4102 
Q 4550 3538 4550 2338 
Q 4550 1131 3912 565 
Q 3275 0 1925 0 
L 628 0 
L 628 4666 
z
" transform="scale(0.015625)"/>
       <path id="DejaVuSans-51" d="M 2522 4238 
Q 1834 4238 1429 3725 
Q 1025 3213 1025 2328 
Q 1025 1447 1429 934 
Q 1834 422 2522 422 
Q 3209 422 3611 934 
Q 4013 1447 4013 2328 
Q 4013 3213 3611 3725 
Q 3209 4238 2522 4238 
z
M 3406 84 
L 4238 -825 
L 3475 -825 
L 2784 -78 
Q 2681 -84 2626 -87 
Q 2572 -91 2522 -91 
Q 1538 -91 948 567 
Q 359 1225 359 2328 
Q 359 3434 948 4092 
Q 1538 4750 2522 4750 
Q 3503 4750 4090 4092 
Q 4678 3434 4678 2328 
Q 4678 1516 4351 937 
Q 4025 359 3406 84 
z
" transform="scale(0.015625)"/>
       <path id="DejaVuSans-4e" d="M 628 4666 
L 1478 4666 
L 3547 763 
L 3547 4666 
L 4159 4666 
L 4159 0 
L 3309 0 
L 1241 3903 
L 1241 0 
L 628 0 
L 628 4666 
z
" transform="scale(0.015625)"/>
      </defs>
      <use xlink:href="#DejaVuSans-44"/>
      <use xlink:href="#DejaVuSans-51" x="77.001953"/>
      <use xlink:href="#DejaVuSans-4e" x="155.712891"/>
     </g>
    </g>
    <g id="line2d_30">
     <path d="M 344.0325 34.976562 
L 354.0325 34.976562 
L 364.0325 34.976562 
" style="fill: none; stroke: #ff7f0e; stroke-width: 1.5; stroke-linecap: square"/>
    </g>
    <g id="text_17">
     <!-- PPO -->
     <g transform="translate(372.0325 38.476562) scale(0.1 -0.1)">
      <defs>
       <path id="DejaVuSans-50" d="M 1259 4147 
L 1259 2394 
L 2053 2394 
Q 2494 2394 2734 2622 
Q 2975 2850 2975 3272 
Q 2975 3691 2734 3919 
Q 2494 4147 2053 4147 
L 1259 4147 
z
M 628 4666 
L 2053 4666 
Q 2838 4666 3239 4311 
Q 3641 3956 3641 3272 
Q 3641 2581 3239 2228 
Q 2838 1875 2053 1875 
L 1259 1875 
L 1259 0 
L 628 0 
L 628 4666 
z
" transform="scale(0.015625)"/>
       <path id="DejaVuSans-4f" d="M 2522 4238 
Q 1834 4238 1429 3725 
Q 1025 3213 1025 2328 
Q 1025 1447 1429 934 
Q 1834 422 2522 422 
Q 3209 422 3611 934 
Q 4013 1447 4013 2328 
Q 4013 3213 3611 3725 
Q 3209 4238 2522 4238 
z
M 2522 4750 
Q 3503 4750 4090 4092 
Q 4678 3434 4678 2328 
Q 4678 1225 4090 567 
Q 3503 -91 2522 -91 
Q 1538 -91 948 565 
Q 359 1222 359 2328 
Q 359 3434 948 4092 
Q 1538 4750 2522 4750 
z
" transform="scale(0.015625)"/>
      </defs>
      <use xlink:href="#DejaVuSans-50"/>
      <use xlink:href="#DejaVuSans-50" x="60.302734"/>
      <use xlink:href="#DejaVuSans-4f" x="120.605469"/>
     </g>
    </g>
   </g>
  </g>
 </g>
 <defs>
  <clipPath id="p0cb658ef9e">
   <rect x="46.965625" y="7.2" width="357.12" height="266.112"/>
  </clipPath>
 </defs>
</svg>
